<svg xmlns="http://www.w3.org/2000/svg" width="34.925" height="43.002" viewBox="0 0 34.925 43.002">
    <defs>
        <style>
            .cls-1{fill:#707070}
        </style>
    </defs>
    <g id="delete" transform="translate(.003 .001)">
        <path id="Path_239" d="M223.405 154.7a1.007 1.007 0 0 0-1.007 1.007v19.034a1.007 1.007 0 0 0 2.014 0V155.71a1.007 1.007 0 0 0-1.007-1.01zm0 0" class="cls-1" data-name="Path 239" transform="translate(-200.004 -139.125)"/>
        <path id="Path_240" d="M105.406 154.7a1.007 1.007 0 0 0-1.007 1.007v19.034a1.007 1.007 0 0 0 2.014 0V155.71a1.007 1.007 0 0 0-1.007-1.01zm0 0" class="cls-1" data-name="Path 240" transform="translate(-93.888 -139.125)"/>
        <path id="Path_241" d="M2.857 12.8v24.813a5.556 5.556 0 0 0 1.477 3.832A4.959 4.959 0 0 0 7.932 43h19.054a4.958 4.958 0 0 0 3.6-1.556 5.556 5.556 0 0 0 1.477-3.832V12.8a3.847 3.847 0 0 0-.987-7.565h-5.157V3.977A3.956 3.956 0 0 0 21.931 0h-8.943A3.956 3.956 0 0 0 9 3.977v1.259H3.844a3.847 3.847 0 0 0-.987 7.564zm24.129 28.186H7.932a3.189 3.189 0 0 1-3.061-3.374V12.889h25.177v24.724a3.189 3.189 0 0 1-3.062 3.373zM11.014 3.977a1.94 1.94 0 0 1 1.974-1.964h8.942a1.94 1.94 0 0 1 1.97 1.964v1.259H11.014zM3.844 7.25h27.231a1.813 1.813 0 1 1 0 3.625H3.844a1.813 1.813 0 1 1 0-3.625zm0 0" class="cls-1" data-name="Path 241"/>
        <path id="Path_242" d="M164.406 154.7a1.007 1.007 0 0 0-1.007 1.007v19.034a1.007 1.007 0 0 0 2.014 0V155.71a1.007 1.007 0 0 0-1.007-1.01zm0 0" class="cls-1" data-name="Path 242" transform="translate(-146.946 -139.125)"/>
    </g>
</svg>
