<svg xmlns="http://www.w3.org/2000/svg" width="281.521" height="234.3" viewBox="0 0 281.521 234.3"><defs><style>.a{fill:#f2f2f2;}.b{fill:#ffc107;}.c{fill:#3f3d56;}.d{fill:#fff;}.e{fill:none;stroke:#3f3d56;stroke-miterlimit:10;stroke-width:2px;}.f{fill:#fbbebe;}.g{opacity:0.1;}.h{fill:#2f2e41;}.i{fill:#d0cde1;}</style></defs><g transform="translate(0 0)"><path class="a" d="M197.616,64.911,149.6,90.922a12.216,12.216,0,1,1-21.474,11.631l-16.374,8.869,42.414,78.3,85.869-46.511Z" transform="translate(-109.521 -64.911)"/><circle class="b" cx="9.914" cy="9.914" r="9.914" transform="translate(18.866 22.232)"/><path class="a" d="M727.223,491.077l51.921-16.936a12.216,12.216,0,1,1,23.217-7.573l17.7-5.775L792.45,376.131l-92.842,30.284Z" transform="translate(-538.545 -281.453)"/><circle class="b" cx="9.914" cy="9.914" r="9.914" transform="translate(242.9 178.774)"/><rect class="c" width="219.722" height="108.909" transform="translate(35.137 46.447)"/><rect class="d" width="211.812" height="98.87" transform="translate(39.092 50.402)"/><rect class="c" width="22.512" height="7.605" transform="translate(208.7 144.557)"/><rect class="b" width="16.428" height="2.13" transform="translate(192.637 150.337)"/><path class="e" d="M190.5,267.109h88.527l13.725,6.686,21.868,10.654,14.3-26.771h40.461" transform="translate(-141.998 -179.288)"/><path class="e" d="M304.925,288.678l6.563,15.515h16.123" transform="translate(-218.816 -200.858)"/><path class="e" d="M385.807,260.847l22.419-12.169h15.819" transform="translate(-277.354 -173.026)"/><circle class="b" cx="2.738" cy="2.738" r="2.738" transform="translate(83.823 85.082)"/><circle class="b" cx="2.738" cy="2.738" r="2.738" transform="translate(107.65 85.082)"/><path class="e" d="M526.5,310.678l1.825,27.075h15.819" transform="translate(-377.615 -216.165)"/><path class="e" d="M586.886,262.153,569.5,248.678h16.428" transform="translate(-408.444 -173.026)"/><path class="e" d="M721.051,257.678l16.868,13.385h15.819" transform="translate(-518.015 -179.288)"/><circle class="b" cx="2.738" cy="2.738" r="2.738" transform="translate(146.796 91.775)"/><circle class="b" cx="2.738" cy="2.738" r="2.738" transform="translate(201.827 75.652)"/><circle class="b" cx="2.738" cy="2.738" r="2.738" transform="translate(175.162 86.299)"/><line class="e" x2="15.819" transform="translate(92.656 105.769)"/><path class="e" d="M615.93,322.589Z" transform="translate(-470.645 -244.199)"/><path class="e" d="M727.93,321.589Z" transform="translate(-550.833 -243.503)"/><path class="e" d="M727.93,329.589Z" transform="translate(-550.833 -249.07)"/><path class="e" d="M932.93,374.589Z" transform="translate(-700.887 -280.38)"/><path class="e" d="M913.93,382.589Z" transform="translate(-687.667 -285.946)"/><path class="e" d="M688.93,472.589Z" transform="translate(-522.911 -348.567)"/><circle class="e" cx="4.489" cy="4.489" r="4.489" transform="translate(221.786 18.488)"/><ellipse class="a" cx="46.241" cy="8.518" rx="46.241" ry="8.518" transform="translate(0 217.264)"/><path class="b" d="M237.521,493.658l-8.249,4.162.534,1.063,8.249-4.162Z" transform="translate(-164.289 -343.479)"/><path class="f" d="M342.427,532.275l-.371,2.224s.556,15.38-3.521,10.562-1.3-11.3-1.3-11.3l1.112-1.853Z" transform="translate(-270.547 -389.838)"/><path class="f" d="M275.862,299.221s-.741,7.783-1.112,8.153,5.559,7.412,5.559,7.412l5.188-4.818s-.371-7.042.741-8.524S275.862,299.221,275.862,299.221Z" transform="translate(-226.498 -227.941)"/><path class="g" d="M275.862,299.221s-.741,7.783-1.112,8.153,5.559,7.412,5.559,7.412l5.188-4.818s-.371-7.042.741-8.524S275.862,299.221,275.862,299.221Z" transform="translate(-226.498 -227.941)"/><path class="c" d="M114.529,698.351v6.671l-2.594.371-3.706-1.112,1.112-7.042Z" transform="translate(-75.304 -485.128)"/><path class="h" d="M196.189,770.763s-1.112-2.965-2.965-2.594S191,770.763,191,770.763s-1.482,5.559-3.706,7.412-4.447,6.671,0,7.412,8.153-1.112,8.153-1.482a4.5,4.5,0,0,1,2.965-2.965c1.853-.37,3.335-.741,3.335-2.224a5.848,5.848,0,0,0-1.112-2.965s-.371-7.03-1.112-6.109a7.373,7.373,0,0,0-1.112,2.4Z" transform="translate(-160.299 -554.204)"/><path class="c" d="M177.932,689.082l-1.482,5.559,3.706.741,1.853-1.853.371-4.818Z" transform="translate(-122.771 -479.195)"/><path class="h" d="M276.906,762.2a6.034,6.034,0,0,1,2.224-1.112h1.112s0-2.594,1.853-2.594,1.482,1.853,1.482,1.853,4.077,6.3,5.188,7.412,7.042,4.447,2.224,5.93-8.153,1.482-10.377-1.112a10.921,10.921,0,0,0-3.706-1.112c-1.482,0-3.335-.741-3.335-1.853a11.2,11.2,0,0,1,1.112-3.336s.741-6.671,1.112-5.93S276.906,762.2,276.906,762.2Z" transform="translate(-225.761 -547.496)"/><path class="h" d="M213.383,474.647v12.23s-4.077,23.719-4.077,31.5-6.3,44.843-3.335,45.585,10.006,1.853,10.377.741,2.965-36.319,3.335-36.69,8.153-29.648,8.153-29.648l1.482.371.741,33.355s-3.706,30.019-1.853,30.019,9.636-.371,9.636-2.594,4.077-43.361,4.077-43.361,4.818-32.613,2.965-35.949-1.853-5.188-1.853-5.188Z" transform="translate(-174.529 -349.999)"/><circle class="f" cx="7.412" cy="7.412" r="7.412" transform="translate(48.038 62.201)"/><path class="b" d="M235.423,323.478s-4.633-3.891-5-5.374c0,0-2.409,2.409-2.409,2.78s-10.377,1.482-12.971,4.447-4.818,9.265-4.818,9.265l6.3,11.859s.371,6.671.371,7.412-1.853,12.6-1.112,12.971,8.153,4.077,14.454,3.336,12.6-1.853,14.454-1.853,3.335.741,3.335,0-1.112-2.224-1.112-2.965-.371-2.594-.371-3.706-.741-2.965-.741-4.447,8.153-21.5,8.153-21.5a11.8,11.8,0,0,0-6.3-9.265c-5.93-2.965-6.671-4.077-6.671-4.077s-.116-2.224-.428-2.224-1.425,3.335-4.389,3.706Z" transform="translate(-178.039 -241.079)"/><path class="f" d="M122.847,426.1l2.594,4.076,6.671-1.482-4.818-5.559Z" transform="translate(-85.475 -294.412)"/><path class="i" d="M328.017,366.224l2.224,2.965s4.447,21.5,3.706,29.278-1.482,13.712-1.482,13.712,1.482,5.559.371,5.559-7.783.371-7.783-.741.741-8.153.741-8.153l-1.853-16.307-4.077-5.559Z" transform="translate(-258.887 -274.56)"/><path class="h" d="M268.178,256.5a6.419,6.419,0,0,1,1.466-.118c.571-.1,1.083-.52,1.66-.466a3.191,3.191,0,0,1,.79.257,1.032,1.032,0,0,0,.809.029.46.46,0,0,0,.176-.691,2.288,2.288,0,0,0,1.316-.567.983.983,0,0,1,.251-.189.82.82,0,0,1,.646.1l.848.391a1.072,1.072,0,0,1,.485.347c.1.157.121.369.263.489.182.154.455.078.693.094a.886.886,0,0,1,.8.864c0,.249-.094.554.1.706.114.088.276.074.41.128.347.141.348.623.3.994s-.026.859.33.974c.251.08.507-.091.768-.129a1.893,1.893,0,0,1,1.107.377,1.027,1.027,0,0,0,1.118.058,1.054,1.054,0,0,0,.187-1.037,5.715,5.715,0,0,0-.544-1.487.944.944,0,0,1-.158-.463.837.837,0,0,1,.389-.566,2.577,2.577,0,0,0,1.061-1.209,5.167,5.167,0,0,0,0-1.2,7.048,7.048,0,0,0,.114-1.454c-.165-.869-1.133-1.288-1.757-1.915-.858-.861-1.137-2.239-2.15-2.912-.81-.538-1.87-.474-2.793-.782-1.014-.338-1.83-1.116-2.83-1.493a3.943,3.943,0,0,0-3.352.294,3.356,3.356,0,0,1-.986.5,3.544,3.544,0,0,1-.9-.01,3.463,3.463,0,0,0-1.711.353.956.956,0,0,0-.479.42c-.179.4.081,1.019-.311,1.209-.183.089-.4,0-.6.008a1.153,1.153,0,0,0-.887.7,3.355,3.355,0,0,1-.622,1c-.483.423-1.361.493-1.487,1.123a6.114,6.114,0,0,0,.045.8c-.036.558-.634.982-.6,1.541.036.644.854.959,1.073,1.566a2.273,2.273,0,0,1-.2,1.429,1.238,1.238,0,0,0,.193,1.366c.153.117.349.165.5.279.4.293.4.885.353,1.381a.649.649,0,0,0,.146.591.547.547,0,0,0,.448.054,1.828,1.828,0,0,0,1.157-.871c.13-.215.156-.4.392-.518.16-.077.354-.008.517-.109C267.493,258.26,267.227,256.9,268.178,256.5Z" transform="translate(-217.585 -190.482)"/><path class="i" d="M200.125,368.661l-1.112,1.112s-6.671,20.013-4.447,24.46,6.671,15.565,8.153,15.195,6.671-3.706,6.671-4.077-6.3-10.748-6.3-10.748-.741-2.224-.371-2.594.371,0,0-.741-.371,0,.371-.741.741-.741.741-1.112,2.224-9.636,2.224-9.636Z" transform="translate(-166.829 -276.255)"/><path class="h" d="M128.329,440.959l8.154-2.594,1.112,2.594-8.894,1.853Z" transform="translate(-89.289 -305.007)"/><path class="g" d="M128.329,440.959l8.154-2.594,1.112,2.594-8.894,1.853Z" transform="translate(-89.289 -305.007)"/><path class="g" d="M164.876,262.939l6.3,5.188.741-1.112Z" transform="translate(-114.718 -182.949)"/><path class="g" d="M196.125,267.812l-4.447,2.594.371,1.112Z" transform="translate(-137.292 -186.339)"/></g></svg>