<svg xmlns="http://www.w3.org/2000/svg" xmlns:xlink="http://www.w3.org/1999/xlink" width="298.313" height="234.847" viewBox="0 0 298.313 234.847"><defs><style>.a,.e{fill:#ffc107;}.a,.f,.x{opacity:0.1;}.b{opacity:0.9;}.c,.j{fill:#3a3768;}.d{fill:#e6e8ec;}.g{fill:#ffd037;}.h{fill:#a8a8a8;}.i{opacity:0.2;}.j{opacity:0.3;}.k{fill:#fff;}.l{fill:#514e7f;}.m{fill:#464353;}.n{fill:#a1616a;}.o{fill:#fbbebe;}.p,.t{opacity:0.05;}.q{fill:#3f3d56;}.r{fill:url(#a);}.s{fill:#2d293d;}.u{fill:#ffcdd3;}.v{fill:#dce6f2;}.w{fill:#575988;}</style><linearGradient id="a" x1="0.501" y1="1" x2="0.501" gradientUnits="objectBoundingBox"><stop offset="0" stop-color="gray" stop-opacity="0.251"/><stop offset="0.54" stop-color="gray" stop-opacity="0.122"/><stop offset="1" stop-color="gray" stop-opacity="0.102"/></linearGradient></defs><g transform="translate(0 0)"><path class="a" d="M265.644,81.478c-17.5-.656-34.169-6.743-50.085-13.4S183.878,54.033,166.786,50.5c-10.976-2.27-23.542-2.59-32.395,3.753-8.518,6.119-11.271,16.653-12.75,26.434-1.114,7.363-1.768,15.108,1.282,22,2.12,4.785,5.879,8.806,8.48,13.4,9.051,15.945,2.653,35.607-7.152,51.176-4.6,7.3-9.937,14.278-13.488,22.046s-5.192,16.682-2.085,24.61c3.077,7.867,10.413,13.765,18.361,17.92,16.141,8.433,35.153,10.848,53.705,12.215,41.056,3.027,82.328,1.716,123.492.405,15.235-.487,30.534-.979,45.52-3.517,8.323-1.41,16.914-3.648,22.955-9.033,7.671-6.856,9.572-18.468,4.432-27.064-8.621-14.421-32.449-18-38.482-33.48-3.315-8.517.089-18.007,4.911-25.907,10.34-16.95,27.671-31.816,28.582-51.19.627-13.3-7.7-26.63-20.586-32.926-13.5-6.6-32.227-5.769-42.183,5.155C299.123,77.728,281.1,82.055,265.644,81.478Z" transform="translate(-90.932 -49.017)"/><g class="b" transform="translate(109.5 32.676)"><rect class="c" width="2.582" height="21.277" rx="1.291" transform="translate(85.847 39.815)"/><rect class="c" width="1.448" height="7.005" rx="0.724" transform="translate(0.052 23.148)"/><rect class="c" width="1.632" height="12.191" rx="0.816" transform="translate(0 35.971)"/><rect class="c" width="1.553" height="12.296" rx="0.777" transform="translate(0.026 52.429)"/><rect class="c" width="86.366" height="175.526" rx="38.99" transform="translate(0.874)"/><rect class="d" width="12.06" height="2.448" rx="1.224" transform="translate(35.724 5.239)"/><circle class="d" cx="1.39" cy="1.39" r="1.39" transform="translate(49.608 5.076)"/></g><ellipse class="a" cx="58.268" cy="5.938" rx="58.268" ry="5.938" transform="translate(11.093 206.303)"/><ellipse class="a" cx="27.297" cy="2.783" rx="27.297" ry="2.783" transform="translate(157.904 229.282)"/><ellipse class="a" cx="27.297" cy="2.783" rx="27.297" ry="2.783" transform="translate(243.719 215.26)"/><path class="e" d="M555.618,176.84H545.74v1.192a5.647,5.647,0,0,1-5.647,5.647H508.571a5.647,5.647,0,0,1-5.647-5.647V176.84h-9.278a6.856,6.856,0,0,0-6.856,6.859V336.364a6.856,6.856,0,0,0,6.856,6.859h61.971a6.859,6.859,0,0,0,6.859-6.859V183.7A6.859,6.859,0,0,0,555.618,176.84Z" transform="translate(-371.043 -139.595)"/><path class="e" d="M814.284,134.652s-24.534-1.48-21.641,15.711a4.178,4.178,0,0,0,2.18,4.417s.044-1.273,2.515-.842a11.2,11.2,0,0,0,2.666.128,5.536,5.536,0,0,0,3.261-1.343h0s6.894-2.85,9.578-14.12c0,0,1.984-2.459,1.906-3.092l-4.141,1.769s1.413,2.987.291,5.469c0,0-.134-5.361-.93-5.245-.163.023-2.153,1.034-2.153,1.034s2.436,5.2.583,8.983c0,0,.7-6.41-1.358-8.607l-2.914,1.7s2.844,5.373.918,9.758c0,0,.492-6.725-1.53-9.345l-2.64,2.06s2.672,5.294,1.043,8.931c0,0-.216-7.827-1.617-8.418a16.233,16.233,0,0,0-2.663,2.873s1.83,3.846.7,5.874c0,0-.7-5.216-1.268-5.245,0,0-2.3,3.456-2.541,5.828a12.571,12.571,0,0,1,1.981-6.154,6.933,6.933,0,0,0-3.523,1.824s.358-2.442,4.079-2.657c0,0,1.9-2.622,2.413-2.78,0,0-3.715-.312-5.968.688,0,0,1.982-2.3,6.649-1.256l2.6-2.13s-4.889-.667-6.964.07c0,0,2.389-2.04,7.669-.554l2.838-1.7a25.909,25.909,0,0,0-6.655-.583s2.622-1.413,7.486.119l2.04-.912s-3.057-.6-3.951-.7-.941-.341-.941-.341a10.593,10.593,0,0,1,5.778.659S814.357,134.923,814.284,134.652Z" transform="translate(-591.978 -109.677)"/><path class="e" d="M757.093,108.455s-11.073-.667-9.779,7.1a1.9,1.9,0,0,0,.985,2s.02-.583,1.136-.382a5.1,5.1,0,0,0,1.2.058,2.512,2.512,0,0,0,1.474-.606h0s3.115-1.288,4.327-6.381c0,0,.9-1.11.874-1.4l-1.871.8a3.352,3.352,0,0,1,.134,2.471s-.058-2.421-.42-2.366c-.073,0-.97.469-.97.469s1.1,2.349.268,4.059c0,0,.315-2.9-.612-3.89l-1.317.769s1.285,2.427.414,4.409c0,0,.224-3.039-.691-4.222l-1.195.932s1.209,2.392.472,4.036c0,0-.1-3.537-.728-3.805a7.2,7.2,0,0,0-1.2,1.3s.824,1.748.312,2.654c0,0-.315-2.357-.583-2.369a7.841,7.841,0,0,0-1.148,2.622,5.669,5.669,0,0,1,.895-2.78,3.12,3.12,0,0,0-1.591.825s.16-1.1,1.847-1.2a7.278,7.278,0,0,1,1.09-1.259,6.832,6.832,0,0,0-2.7.312s.895-1.04,3-.583l1.166-.962a10.055,10.055,0,0,0-3.147.032s1.081-.921,3.464-.251l1.282-.766a11.648,11.648,0,0,0-3-.259,4.609,4.609,0,0,1,3.38.052l.918-.411s-1.378-.271-1.783-.315-.425-.154-.425-.154a4.767,4.767,0,0,1,2.59.291A11.75,11.75,0,0,0,757.093,108.455Z" transform="translate(-558.44 -91.126)"/><ellipse class="e" cx="11.717" cy="1.981" rx="11.717" ry="1.981" transform="translate(0 195.743)"/><path class="e" d="M82.229,703.329a3.389,3.389,0,0,0,1.119-1.684,1.51,1.51,0,0,0-.781-1.716c-.717-.277-1.483.221-2.063.723a2.755,2.755,0,0,1-2.008.967,3.051,3.051,0,0,0,.935-2.858,1.166,1.166,0,0,0-.262-.583c-.4-.425-1.119-.242-1.6.093-1.515,1.066-1.938,3.124-1.944,4.977a9.182,9.182,0,0,1-.029-2.04,2.1,2.1,0,0,0-.769-1.812,2.33,2.33,0,0,0-1.166-.277,2.437,2.437,0,0,0-1.906.542,1.874,1.874,0,0,0,.076,2.331,7.616,7.616,0,0,0,1.97,1.579,4.349,4.349,0,0,1,1.41,1.343,1.287,1.287,0,0,1,.1.239h4.269A11.883,11.883,0,0,0,82.229,703.329Z" transform="translate(-65.67 -508.848)"/><path class="e" d="M865.473,632.54s2.521,3.3-1.165,8.275-6.722,9.179-5.493,12.282c0,0,5.56-9.243,10.085-9.374S870.449,638.1,865.473,632.54Z" transform="translate(-639.68 -462.511)"/><path class="f" d="M865.822,632.54a4.151,4.151,0,0,1,.516,1.034c4.414,5.187,6.766,10.029,2.52,10.149-3.951.114-8.695,7.183-9.828,8.966a3.365,3.365,0,0,0,.134.408s5.56-9.243,10.085-9.374S870.8,638.1,865.822,632.54Z" transform="translate(-640.032 -462.511)"/><path class="g" d="M897,645.192c0,1.166-.131,2.1-.291,2.1s-.291-.941-.291-2.1.163-.612.323-.612S897,644.027,897,645.192Z" transform="translate(-666.647 -470.95)"/><path class="g" d="M899.1,649.783c-1.02.554-1.906.892-1.984.749s.688-.705,1.708-1.262.615-.149.693,0S900.121,649.226,899.1,649.783Z" transform="translate(-667.254 -474.165)"/><path class="e" d="M822.886,632.54s-2.521,3.3,1.166,8.275,6.722,9.179,5.5,12.282c0,0-5.56-9.243-10.085-9.374S817.909,638.1,822.886,632.54Z" transform="translate(-609.579 -462.511)"/><path class="f" d="M822.881,632.54a4.035,4.035,0,0,0-.516,1.034c-4.414,5.187-6.766,10.029-2.523,10.149,3.954.114,8.695,7.183,9.831,8.966a3.928,3.928,0,0,1-.134.408s-5.56-9.243-10.085-9.374S817.9,638.1,822.881,632.54Z" transform="translate(-609.566 -462.511)"/><path class="g" d="M820.55,645.192c0,1.166.131,2.1.291,2.1s.291-.941.291-2.1-.163-.612-.323-.612S820.55,644.027,820.55,645.192Z" transform="translate(-611.416 -470.95)"/><path class="g" d="M813.5,649.783c1.017.554,1.906.892,1.981.749s-.685-.705-1.7-1.262-.618-.149-.693,0S812.495,649.226,813.5,649.783Z" transform="translate(-605.931 -474.165)"/><path class="h" d="M823.31,692.346s7.049-.219,9.173-1.731,10.842-3.319,11.364-.892,10.592,12.066,2.623,12.13-18.491-1.241-20.61-2.532S823.31,692.346,823.31,692.346Z" transform="translate(-614.73 -502.191)"/><path class="i" d="M846.63,710.252c-7.958.064-18.491-1.241-20.61-2.532-1.617-.982-2.258-4.511-2.474-6.139h-.236s.446,5.685,2.567,6.976,12.652,2.6,20.609,2.532c2.3-.02,3.092-.836,3.048-2.04C849.214,709.78,848.34,710.237,846.63,710.252Z" transform="translate(-614.731 -511.434)"/><rect class="j" width="22.737" height="22.737" transform="translate(158.168 142.158)"/><rect class="j" width="22.737" height="22.737" transform="translate(127.05 112.146)"/><rect class="j" width="22.737" height="22.737" transform="translate(129.079 171.658)"/><rect class="k" width="22.737" height="22.737" transform="translate(124.368 56.319)"/><rect class="k" width="22.737" height="22.737" transform="matrix(0.742, -0.671, 0.671, 0.742, 158.991, 149.218)"/><rect class="k" width="22.737" height="22.737" transform="translate(157.818 83.718)"/><rect class="k" width="22.737" height="22.737" transform="translate(131.128 109.069)"/><path class="e" d="M1022.2,774.027a8.865,8.865,0,0,0,3.963-.134c.2-.061.419-.2.393-.4a.467.467,0,0,0-.09-.192,12.356,12.356,0,0,1-1.2-2.282.186.186,0,0,0-.073-.1.177.177,0,0,0-.128,0c-.583.152-1.09.53-1.673.691a2.388,2.388,0,0,1-.909.07c-.262-.029-.624-.248-.86-.221C1021.766,772.325,1022.1,773.144,1022.2,774.027Z" transform="translate(-760.199 -560.562)"/><path class="e" d="M1106.011,762.988a6.773,6.773,0,0,0,2.293-2.153.353.353,0,0,0,.061-.184.378.378,0,0,0-.073-.181,7.465,7.465,0,0,0-1.862-2.01,5.508,5.508,0,0,0-1.04.959c-.218.23-.824.609-.83.953,0,.207.23.431.338.583.146.216.291.437.417.659A10.927,10.927,0,0,1,1106.011,762.988Z" transform="translate(-818.972 -551.74)"/><path class="l" d="M1008.561,780.108a.873.873,0,0,1-.157.583.779.779,0,0,1-.335.2c-1.853.661-3.986-.166-5.828.489-.382.134-.74.326-1.122.455a6.071,6.071,0,0,1-1.39.248c-.656.064-1.311.1-1.967.119a4.759,4.759,0,0,1-1.48-.128,1.792,1.792,0,0,1-1.136-.9.874.874,0,0,1-.055-.641.725.725,0,0,1,.12-.207,1.777,1.777,0,0,1,.437-.353l.682-.44a4.555,4.555,0,0,1,1.031-.548c.268-.087.557-.125.828-.2a5.718,5.718,0,0,0,2.366-1.769l.927-.988a.908.908,0,0,1,.321-.257.875.875,0,0,1,.4-.041,5.354,5.354,0,0,1,2.526.851,3.636,3.636,0,0,0,.624.367,2.227,2.227,0,0,0,1.748-.218c.239-.125.186-.2.291-.428s.344-.37.554-.163a.609.609,0,0,1,.131.251,6.949,6.949,0,0,1,.125,2.06.917.917,0,0,0,.041.321,1.955,1.955,0,0,0,.181.291.455.455,0,0,1,.038.076A2.022,2.022,0,0,1,1008.561,780.108Z" transform="translate(-741.374 -563.968)"/><path class="m" d="M1008.561,788.416a.874.874,0,0,1-.157.583.778.778,0,0,1-.335.2c-1.853.661-3.986-.166-5.828.49-.382.134-.74.326-1.122.455a6.078,6.078,0,0,1-1.39.248c-.656.064-1.311.1-1.967.119a4.755,4.755,0,0,1-1.48-.128,1.792,1.792,0,0,1-1.136-.9.874.874,0,0,1-.055-.641.727.727,0,0,1,.12-.207c.111.227.189.525.256.632a1.293,1.293,0,0,0,.874.626,2.218,2.218,0,0,0,.79-.1c1.678-.417,3.462-.423,5.07-1.052a12.128,12.128,0,0,1,1.661-.638,13.208,13.208,0,0,1,1.795-.146c.947-.076,1.862-.361,2.8-.51A2.023,2.023,0,0,1,1008.561,788.416Z" transform="translate(-741.374 -572.276)"/><path class="l" d="M1098.592,765.773a3.363,3.363,0,0,1-1.023,1.821,11.681,11.681,0,0,0-1.428,1.565,12.864,12.864,0,0,1-1.32,2.261,3.581,3.581,0,0,1-.792.583,5.485,5.485,0,0,1-1.029.472,7.874,7.874,0,0,1-2.914.16,2.589,2.589,0,0,1-.921-.181,2.683,2.683,0,0,1-.391-.236,1.854,1.854,0,0,1-.583-.6.606.606,0,0,1-.055-.434.989.989,0,0,1,.291-.425,6.6,6.6,0,0,1,.7-.632,4.168,4.168,0,0,0,.915-.8,2.623,2.623,0,0,0,.352-.8,7.2,7.2,0,0,0,.256-1.53,4.817,4.817,0,0,1,.108-1.023c.149-.524.539-1,.492-1.544a.4.4,0,0,1,.02-.233.365.365,0,0,1,.184-.114,3.32,3.32,0,0,1,.956-.219,1.1,1.1,0,0,1,.874.347c.137.163.224.391.425.463a.709.709,0,0,0,.292,0,2.479,2.479,0,0,0,1.387-.428,1.748,1.748,0,0,0,.583-1.273c0-.181-.082-.37.2-.408.213-.029.379.192.487.338a4.756,4.756,0,0,1,.935,1.7.472.472,0,0,1,.178-.035.761.761,0,0,1,.635.326A1.259,1.259,0,0,1,1098.592,765.773Z" transform="translate(-807.322 -554.639)"/><path class="m" d="M1098.77,770.7a3.363,3.363,0,0,1-1.023,1.821,11.684,11.684,0,0,0-1.428,1.565,12.861,12.861,0,0,1-1.32,2.261,3.577,3.577,0,0,1-.792.583,5.485,5.485,0,0,1-1.029.472,7.873,7.873,0,0,1-2.914.16,2.591,2.591,0,0,1-.921-.181,2.676,2.676,0,0,1-.39-.236,1.854,1.854,0,0,1-.583-.6,1.419,1.419,0,0,1,.6-.143c.434.023.749.431,1.166.557.583.178,1.166-.239,1.774-.382.391-.09.8-.064,1.186-.189a2.93,2.93,0,0,0,.874-.53,4.441,4.441,0,0,0,.935-.9,5.754,5.754,0,0,0,.551-1.1,15.632,15.632,0,0,1,1.11-2.124,1.415,1.415,0,0,1,.227-.291c.09-.084.2-.146.292-.221a2.318,2.318,0,0,0,.705-1.285,2.148,2.148,0,0,1,.157-.428.76.76,0,0,1,.635.326A1.259,1.259,0,0,1,1098.77,770.7Z" transform="translate(-807.499 -559.57)"/><path class="n" d="M978.5,547.968a4.23,4.23,0,0,1,1.189,1.39c.291.548,1.891,4.8,1.8,5.411.525-.53,2.605-.618,3.127-1.145.221-.221,1.419-1.329,1.6-1.585s1.512-.807,1.658-1.069c.545-.976-3.864-4.662-3.3-5.641a.239.239,0,0,0,.047-.151.233.233,0,0,0-.073-.117,7.012,7.012,0,0,0-1.276-.874,2.04,2.04,0,0,1-.973-1.166,4.186,4.186,0,0,0-1.128.763q-1.209,1.034-2.384,2.121c-.309.291-.9.661-1.04,1.066S978.2,547.729,978.5,547.968Z" transform="translate(-729.089 -399.076)"/><path class="l" d="M991.37,554.61a12.763,12.763,0,0,0-1.888,1.544,3.778,3.778,0,0,0-1.2,1.926c-.055.291-.047.6-.093.9-.2,1.305-1.329,2.264-1.827,3.5a5.975,5.975,0,0,0-.32,1.165,13.741,13.741,0,0,0-.227,2.29c0,.746.717,1.259.985,1.955a11.863,11.863,0,0,1,.475,2.118,25.81,25.81,0,0,0,1.192,3.934c.985,2.719,4.176,10.236,5.16,12.958,3.016-.758,11.046-2.5,13.715-4.079.892-.53-6.177-6.521-5.224-6.935a.481.481,0,0,0,.265-.2.46.46,0,0,0,0-.291c-.95-4.164-3.931-7.576-5.28-11.655a35.207,35.207,0,0,0-1.952-3.948c-.583-1.212-.889-2.55-1.579-3.7a2.471,2.471,0,0,0-.5-.632,3.088,3.088,0,0,0-.559-.335C992.121,554.916,991.754,554.8,991.37,554.61Z" transform="translate(-734.824 -407.289)"/><circle class="n" cx="4.72" cy="4.72" r="4.72" transform="translate(244.85 138.976)"/><path class="m" d="M997.43,548.763a1.582,1.582,0,0,1,1.775-.253.874.874,0,0,1,.527.851l2.331.035a4.879,4.879,0,0,1,1.11.1,1.614,1.614,0,0,1,.927.583c.029.038.061.082.108.09a.186.186,0,0,0,.108-.038,2.054,2.054,0,0,1,1.166-.21,6.3,6.3,0,0,1,3.427,1.506,1.11,1.11,0,0,1,.408.5c.082.265,0,.606.192.787,0,2.2.755,4.248,1.259,6.39a2.832,2.832,0,0,0,.708,1.017,4.076,4.076,0,0,1,.758,1.13c.425,1.11-.163,2.413.254,3.529a5.685,5.685,0,0,0,.8,1.268,3.265,3.265,0,0,1,.685,1.638c.018.268-.017.536,0,.807a4.924,4.924,0,0,0,.192,1.061c.169.644.35,1.288.536,1.929a4.34,4.34,0,0,0,1.629,2.713c-2.246.382-4.613.752-6.754-.026a3.5,3.5,0,0,1-.842-.423,4.851,4.851,0,0,1-1.477-2.383,11.205,11.205,0,0,1-.827-3.077,3.523,3.523,0,0,0-.14-1.005,2.81,2.81,0,0,0-1.326-1.25,6.38,6.38,0,0,1-1.594-1.241,2.476,2.476,0,0,1-.647-1.865c.041-.329.169-.647.184-.979a.784.784,0,0,0-.455-.807c-1.635-.5-2.416-2.43-2.78-4.1a13.08,13.08,0,0,1-.21-2.622l-.02-1.687a2.238,2.238,0,0,1-.734-1.614,1.823,1.823,0,0,0,0-.533,1.5,1.5,0,0,0-.373-.583,4.92,4.92,0,0,1-.906-1.235Z" transform="translate(-743.058 -402.849)"/><path class="m" d="M979.371,564.872a12.475,12.475,0,0,1-.052,1.585c-.047.2-.125.388-.184.583a3.439,3.439,0,0,0,.219,2.22,12.334,12.334,0,0,0,1.133,1.967,3,3,0,0,1,.364.679,3.52,3.52,0,0,1,.14.778,23.7,23.7,0,0,0,.557,3.129,6.149,6.149,0,0,0,1.1,2.515.763.763,0,0,0,.455.309.821.821,0,0,0,.388-.082l1.206-.458a.841.841,0,0,0,.291-.151.731.731,0,0,0,.169-.472,6.938,6.938,0,0,0-.53-2.859,72.971,72.971,0,0,1-2.914-8.334,5.987,5.987,0,0,0-.857-2.666c-.242-.262-.16-.151-.449,0a3.671,3.671,0,0,0-.422.224A1.384,1.384,0,0,0,979.371,564.872Z" transform="translate(-730.029 -413.559)"/><path class="m" d="M1059.24,627.68" transform="translate(-786.857 -459.067)"/><path class="e" d="M991.941,566.519q.481,2.544.982,5.091l4.685-1.23a3.282,3.282,0,0,0-.4-1.4c-.428-1.072-.437-2.264-.784-3.365-.262-.839-.717-1.611-.962-2.456-.143-.49-.213-1-.353-1.495a11.432,11.432,0,0,0-.551-1.425,9.08,9.08,0,0,0-1.023-1.9,2.988,2.988,0,0,0-1.579,1.023,2.174,2.174,0,0,0-.291,1.008c-.082,1.055.291,2.113.172,3.156A9.324,9.324,0,0,0,991.941,566.519Z" transform="translate(-738.962 -409.932)"/><path class="m" d="M1006.037,639.446a5.638,5.638,0,0,1-.428,3.036,23.582,23.582,0,0,0-.956,4.572,3.789,3.789,0,0,1-.236,1.166,10.889,10.889,0,0,1-.568.932,4.672,4.672,0,0,0-.358,2.806c.067.629.169,1.256.291,1.876a4.73,4.73,0,0,1,.122,2.285c.37-.082.623.4.609.778s-.149.79.032,1.125c.46.166.466.8.452,1.285a10.842,10.842,0,0,0,.318,2.518q1.043,5.009,2.215,9.992c1.687.525,3.657,1.069,5.265.344a1.034,1.034,0,0,0,.667-.67,1.205,1.205,0,0,0-.064-.516l-.763-2.774a5.106,5.106,0,0,1-.274-2.04c.076-.516.291-1.069.047-1.521a4.355,4.355,0,0,0-.32-.425c-.4-.583-.192-1.367-.157-2.078a1.631,1.631,0,0,0-.035-.475,2.5,2.5,0,0,0-.224-.521,7.965,7.965,0,0,1-.874-3.963.972.972,0,0,0-.07-.519,1.2,1.2,0,0,1-.128-.21.563.563,0,0,1,.041-.382,3.32,3.32,0,0,1-.615-.583.874.874,0,0,0,.146-1.346.449.449,0,0,0,.216-.772c-.1-.07-.227-.1-.291-.2-.108-.146-.02-.353.067-.51l.466-.842c.347-.624.425-1.4.8-2a15.041,15.041,0,0,0,1.23-2.806l1.329-3.7.9.784a2.831,2.831,0,0,1,.743.848,3.579,3.579,0,0,1,.239,1.014c.332,2.011,1.6,3.753,2.069,5.737a3.863,3.863,0,0,0,.425,1.282,2.784,2.784,0,0,1,.245.367,1.936,1.936,0,0,1,.1.609,2.838,2.838,0,0,0,1.2,2.04c.443.291,1.005.516,1.238,1a1.976,1.976,0,0,0,.2.426c.216.259.682.291.775.615.05.184-.047.4.058.559a.51.51,0,0,0,.219.163l1.3.653c1.457.726,2.191,2.389,3.266,3.61a7.5,7.5,0,0,1,.976,1.294c.463.828.679,1.868,1.457,2.4a2.266,2.266,0,0,1,.565.42c.248.323.157.778.178,1.186s.335.892.723.769a2.813,2.813,0,0,0,0,1.506,7.593,7.593,0,0,0,4.6-1.865,1.816,1.816,0,0,0,.749-1.256.485.485,0,0,0-.055-.251.682.682,0,0,0-.292-.221c-1.215-.659-1.582-2.185-2.191-3.427a28.674,28.674,0,0,0-2-3.054c-1.457-2.185-2.43-4.828-4.618-6.273a3.127,3.127,0,0,1-1.279-1.125,9.016,9.016,0,0,1-.257-.932.783.783,0,0,0-.685-.583,4.156,4.156,0,0,0,.158-1.457,1.809,1.809,0,0,0-.073-.626,2.965,2.965,0,0,0-.32-.618,5.989,5.989,0,0,1-.825-3.205,5.158,5.158,0,0,0-.055-1.722c-.087-.291-.239-.533-.347-.8a5.019,5.019,0,0,1-.251-1.5l-.119-1.92a9.19,9.19,0,0,0-.248-1.9c-.405-1.489-.793-7.728-2.165-8.43s-3.715,4.1-5.245,4.193a7,7,0,0,0-2,.385,9.713,9.713,0,0,0-2.719,1.8l-2.832,2.378A10.325,10.325,0,0,1,1006.037,639.446Z" transform="translate(-747.312 -460.25)"/><path class="m" d="M962.773,520.92a3.56,3.56,0,0,1,2.748-1.34,6.411,6.411,0,0,1,3.036.763,3.921,3.921,0,0,0,.874.364c.5.1,1.055-.035,1.506.2a1.806,1.806,0,0,1,.661,1.8,3.281,3.281,0,0,0,.181,2,5.542,5.542,0,0,1,.347.519,1.732,1.732,0,0,1-.032,1.11,8.887,8.887,0,0,1-.583-.731.678.678,0,0,0-.825-.216c-.256.172-.256.49-.268.772s-.087.624-.355.717a.583.583,0,0,1-.583-.233c-.458-.56-.274-1.457-.726-2.016-.259-.32-.688-.475-.927-.81-.186-.262-.233-.6-.4-.874s-.545-.492-.8-.291a1.089,1.089,0,0,0-.213.291,1.227,1.227,0,0,1-1.457.437,2.556,2.556,0,0,0-.632-.271.778.778,0,0,0-.72.39,1.55,1.55,0,0,0-.189.833,1.937,1.937,0,0,1-.157,1.145,1.18,1.18,0,0,1-.338.291,1,1,0,0,1-1.107.114.833.833,0,0,1-.248-.775,6.361,6.361,0,0,1,.236-.819c.175-.618-.052-1.314.14-1.9A5.973,5.973,0,0,1,962.773,520.92Z" transform="translate(-717.635 -382.466)"/><path class="e" d="M974.383,551.852a.729.729,0,0,0,.044.434.706.706,0,0,0,.236.227,4.891,4.891,0,0,0,2.226.72.67.67,0,0,1,.291.079.551.551,0,0,1,.131.621,1.654,1.654,0,0,0-.14.659c.058.417.551.606.97.659a2.25,2.25,0,0,0,1.687-.326,2.6,2.6,0,0,0,.7-1.046c1.145-2.622,1.547-5.536,2.707-8.159a1.657,1.657,0,0,0,.175-.545.542.542,0,0,0-.216-.5c-.216-.134-.551-.058-.7-.265-.073-.108-.064-.251-.128-.361-.134-.239-.484-.21-.726-.338-.186-.1-.318-.291-.525-.347a.67.67,0,0,0-.548.236,7.039,7.039,0,0,0-1.416,2.386,28.349,28.349,0,0,1-2.04,3.762,2.173,2.173,0,0,0-.635-1.244c-.355-.073-.816.554-1.008.79A5,5,0,0,0,974.383,551.852Z" transform="translate(-726.716 -399.314)"/><rect class="k" width="22.737" height="22.737" transform="translate(250.051 156.267)"/><path class="n" d="M1056.172,625.5a9.183,9.183,0,0,0-1.078,1.13,2.253,2.253,0,0,0-.5,1.457.748.748,0,0,0,.14.425.364.364,0,0,0,.4.125.584.584,0,0,0,.2-.178,9.343,9.343,0,0,1,.67-.728c.088-.085.2-.175.315-.143a.33.33,0,0,1,.137.09.925.925,0,0,1,.291.44,1.043,1.043,0,0,1-.309.848,2.2,2.2,0,0,0-.522.772.33.33,0,0,0,0,.248.4.4,0,0,0,.154.134,2.249,2.249,0,0,0,1.885.122c.405-.16.755-.44,1.166-.583a2.8,2.8,0,0,0,.516-.192,1.06,1.06,0,0,0,.457-.682,2.912,2.912,0,0,0,.032-.842,9.62,9.62,0,0,0-.7-3.176.377.377,0,0,0-.114-.169.4.4,0,0,0-.192-.055,4.773,4.773,0,0,0-1.842-.125,1.256,1.256,0,0,0-.434.388C1056.738,624.9,1056.172,625.362,1056.172,625.5Z" transform="translate(-783.568 -456.706)"/><path class="m" d="M1041.994,581.357c0-.49-.606-1.664.353-1.748,0-.519-.737-.845-.6-1.393.047-.187.2-.335.219-.522.061-.533-.9-.822-.743-1.335.058-.2.271-.315.318-.513.108-.46-.717-.667-.731-1.139,0-.16.088-.312.082-.469,0-.2-.175-.353-.271-.524-.248-.446-.128-1.136-.583-1.364.291.023.4-.423.277-.7s-.379-.51-.379-.813a1.3,1.3,0,0,0,0-.335c-.085-.291-.563-.312-.641-.6a3.085,3.085,0,0,1,0-.329c-.029-.227-.262-.367-.481-.434a1.911,1.911,0,0,1-.641-.227c-.14-.108-.291-.291-.452-.189-.055.032-.084.1-.128.146-.178.207-.519.117-.746-.038a3.085,3.085,0,0,1-1.142-2.057c-.146-.793-.137-1.611-.312-2.4a5.491,5.491,0,0,0-.213-.717,3.7,3.7,0,0,1-.338-.717c-.035-.458.915-.146,1.276-.1a5.673,5.673,0,0,1,1.037.2,11.01,11.01,0,0,1,1.058.463c1.457.638,3.182.717,4.341,1.786a3.608,3.608,0,0,0,1.195.97,6.094,6.094,0,0,1,.67.175c.551.259.635.988.935,1.515a3.265,3.265,0,0,1,.248.437,1.728,1.728,0,0,1,.079.559l.041,1.384a51.123,51.123,0,0,1-.111,6.947,5.73,5.73,0,0,0,.026,2.273c.058.2.143.388.192.583a3.958,3.958,0,0,1,.076.72l.032.895a.216.216,0,0,1-.286.265c-1.25-.111-2.509-.816-3.689-.391" transform="translate(-769.565 -413.018)"/><path class="n" d="M978.845,613.424a.384.384,0,0,0-.14.117.993.993,0,0,0,0,1.183.4.4,0,0,1,.07.117.343.343,0,0,1-.035.2.656.656,0,0,0,.09.734c.09.076.213.114.271.213.1.169-.041.385-.017.583.029.259.335.388.583.42a.621.621,0,0,0,.568-.152.472.472,0,0,0,0-.516,1.382,1.382,0,0,0-.385-.385.583.583,0,0,0,.551-.533.828.828,0,0,0-.332-.726c-.052-.044-.116-.087-.131-.157s.055-.166.12-.233c.291-.291.516-1.005-.032-1.165a1.347,1.347,0,0,0-.583.026c-.14.044-.14.128-.248.186S978.967,613.363,978.845,613.424Z" transform="translate(-729.651 -448.736)"/><path class="f" d="M993.925,545.14a.961.961,0,0,0-.74.373,2.129,2.129,0,0,0-.309.991,8.685,8.685,0,0,1-1.166,3.164" transform="translate(-739.005 -400.578)"/><path class="f" d="M997.5,547.88a1.131,1.131,0,0,0-.967.583,3.235,3.235,0,0,0-.245.988,5.368,5.368,0,0,1-.97,2.072" transform="translate(-741.563 -402.52)"/><path class="o" d="M323.634,604.11c.169,1.841-1.221,3.625-.816,5.425.087.385.254.749.315,1.136a4.39,4.39,0,0,1-1.081,2.978l-5.227,7.675a4.968,4.968,0,0,1-.749.924c-1,.874-2.5.8-3.814,1.061a6.542,6.542,0,0,0-2.553,1.131.166.166,0,0,0-.035.23,2.2,2.2,0,0,0,1.9.892c.137.181,0,.446-.189.583-.291.2-.667.245-.723.723a.781.781,0,0,0,.1.478,1.477,1.477,0,0,0,.915.635c1.809.554,3.768-.417,5.12-1.748s2.331-2.992,3.66-4.342c.737-.743,1.573-1.384,2.331-2.107a26.817,26.817,0,0,0,3.826-4.953,5.5,5.5,0,0,0,.828-1.684c.14-.6.076-1.232.239-1.827a6.594,6.594,0,0,1,1.253-2.04,6.771,6.771,0,0,0,1.425-4.414,4.226,4.226,0,0,0-2.582-3.663,2.311,2.311,0,0,0-1.457-.09,3.517,3.517,0,0,0-1.474,1.166l-.991,1.148a2.646,2.646,0,0,0-.583.874.918.918,0,0,0,.2.976" transform="translate(-239.828 -440.186)"/><path class="p" d="M323.634,604.11c.169,1.841-1.221,3.625-.816,5.425.087.385.254.749.315,1.136a4.39,4.39,0,0,1-1.081,2.978l-5.227,7.675a4.968,4.968,0,0,1-.749.924c-1,.874-2.5.8-3.814,1.061a6.542,6.542,0,0,0-2.553,1.131.166.166,0,0,0-.035.23,2.2,2.2,0,0,0,1.9.892c.137.181,0,.446-.189.583-.291.2-.667.245-.723.723a.781.781,0,0,0,.1.478,1.477,1.477,0,0,0,.915.635c1.809.554,3.768-.417,5.12-1.748s2.331-2.992,3.66-4.342c.737-.743,1.573-1.384,2.331-2.107a26.817,26.817,0,0,0,3.826-4.953,5.5,5.5,0,0,0,.828-1.684c.14-.6.076-1.232.239-1.827a6.594,6.594,0,0,1,1.253-2.04,6.771,6.771,0,0,0,1.425-4.414,4.226,4.226,0,0,0-2.582-3.663,2.311,2.311,0,0,0-1.457-.09,3.517,3.517,0,0,0-1.474,1.166l-.991,1.148a2.646,2.646,0,0,0-.583.874.918.918,0,0,0,.2.976" transform="translate(-239.828 -440.186)"/><path class="n" d="M214.314,609.82c.291.921.583,1.842.935,2.739a23.18,23.18,0,0,0,2.421,4.417,31.843,31.843,0,0,0,2,2.622,8.813,8.813,0,0,1,2.2,3.453,17.488,17.488,0,0,1,.2,2.381,2.907,2.907,0,0,0,.976,2.11,3.626,3.626,0,0,0,1.608.53c.4.064.906.084,1.116-.265a.994.994,0,0,0,.111-.46l.1-1.165c.02-.251.108-.583.358-.583s.379.323.583.472a.632.632,0,0,0,.874-.291,1.457,1.457,0,0,0,.023-1.02,4.843,4.843,0,0,0-2.486-3.08,7.471,7.471,0,0,1-1.212-.632,4.123,4.123,0,0,1-.953-1.2,75.345,75.345,0,0,1-5.973-11.221,8.3,8.3,0,0,1-.615-2.211,14.281,14.281,0,0,1,.1-2.331,13.344,13.344,0,0,0-.385-4.161,3.274,3.274,0,0,0-.4-1.011,2.263,2.263,0,0,0-3.094-.446,3.188,3.188,0,0,0-1.23,2.25,6.423,6.423,0,0,0,.615,2.331Q213.257,606.432,214.314,609.82Z" transform="translate(-165.003 -438.072)"/><path class="p" d="M214.314,609.82c.291.921.583,1.842.935,2.739a23.18,23.18,0,0,0,2.421,4.417,31.843,31.843,0,0,0,2,2.622,8.813,8.813,0,0,1,2.2,3.453,17.488,17.488,0,0,1,.2,2.381,2.907,2.907,0,0,0,.976,2.11,3.626,3.626,0,0,0,1.608.53c.4.064.906.084,1.116-.265a.994.994,0,0,0,.111-.46l.1-1.165c.02-.251.108-.583.358-.583s.379.323.583.472a.632.632,0,0,0,.874-.291,1.457,1.457,0,0,0,.023-1.02,4.843,4.843,0,0,0-2.486-3.08,7.471,7.471,0,0,1-1.212-.632,4.123,4.123,0,0,1-.953-1.2,75.345,75.345,0,0,1-5.973-11.221,8.3,8.3,0,0,1-.615-2.211,14.281,14.281,0,0,1,.1-2.331,13.344,13.344,0,0,0-.385-4.161,3.274,3.274,0,0,0-.4-1.011,2.263,2.263,0,0,0-3.094-.446,3.188,3.188,0,0,0-1.23,2.25,6.423,6.423,0,0,0,.615,2.331Q213.257,606.432,214.314,609.82Z" transform="translate(-165.003 -438.072)"/><path class="q" d="M361.635,752.023a6.1,6.1,0,0,1-3.893.583c-.213-.026-.466-.044-.6.122-.2.239.035.583.277.787a5.793,5.793,0,0,0,2.675,1.1,18.262,18.262,0,0,0,2.622.175,44.337,44.337,0,0,0,7.148-.265.947.947,0,0,0,.39-.114.74.74,0,0,0,.291-.449,1.786,1.786,0,0,0-.624-1.7,5.242,5.242,0,0,0-1.667-.895l-2.075-.807a5.337,5.337,0,0,0-1.8-.653C363.4,749.968,362.459,751.539,361.635,752.023Z" transform="translate(-274.263 -545.676)"/><path class="q" d="M380.273,767.126a5.1,5.1,0,0,1-3.482,1.3c-.326,0-.781.061-.781.388a.512.512,0,0,0,.093.271,3.205,3.205,0,0,0,1.8,1.41,6.414,6.414,0,0,0,2.174.137l2.127-.111c.4-.02.807-.041,1.206-.09s.833-.131,1.25-.2a16.672,16.672,0,0,1,3.1-.146.9.9,0,0,0,.763-.2c.189-.239.079-.583.018-.874-.128-.615,0-1.262-.119-1.882a3.309,3.309,0,0,0-2.171-2.311c-.956-.364-2.652-.781-3.558-.175A22.913,22.913,0,0,0,380.273,767.126Z" transform="translate(-288.052 -555.904)"/><path class="m" d="M372.392,650.792c-.874,1.151-1.748,2.48-1.544,3.9a8.8,8.8,0,0,0,.86,2.153,15.178,15.178,0,0,1,.874,3.025c.323,1.506.647,3.016.848,4.543a28.367,28.367,0,0,1,.189,5.216,1.76,1.76,0,0,1-.364,1.166c-.117.117-.268.213-.318.37a.627.627,0,0,0,.067.437,4.84,4.84,0,0,0,2.593,2.386,9.932,9.932,0,0,0,3.526.659.989.989,0,0,0,.472-.061.909.909,0,0,0,.364-.417c.874-1.661.388-3.666.4-5.536,0-1.565.379-3.115.312-4.68-.055-1.253-.39-2.477-.513-3.727a22.06,22.06,0,0,1,.551-6.134c.291-1.55.583-3.1.947-4.639a8.847,8.847,0,0,1,1-2.692c.408-.644.962-1.183,1.428-1.789a8.121,8.121,0,0,0,1.6-5.935c-.029-.21-3,.752-3.258.874a10.1,10.1,0,0,0-2.914,1.868,24.136,24.136,0,0,0-1.83,2.261q-1.276,1.553-2.512,3.124Q373.761,648.965,372.392,650.792Z" transform="translate(-284.317 -467.094)"/><path class="p" d="M372.392,650.792c-.874,1.151-1.748,2.48-1.544,3.9a8.8,8.8,0,0,0,.86,2.153,15.178,15.178,0,0,1,.874,3.025c.323,1.506.647,3.016.848,4.543a28.367,28.367,0,0,1,.189,5.216,1.76,1.76,0,0,1-.364,1.166c-.117.117-.268.213-.318.37a.627.627,0,0,0,.067.437,4.84,4.84,0,0,0,2.593,2.386,9.932,9.932,0,0,0,3.526.659.989.989,0,0,0,.472-.061.909.909,0,0,0,.364-.417c.874-1.661.388-3.666.4-5.536,0-1.565.379-3.115.312-4.68-.055-1.253-.39-2.477-.513-3.727a22.06,22.06,0,0,1,.551-6.134c.291-1.55.583-3.1.947-4.639a8.847,8.847,0,0,1,1-2.692c.408-.644.962-1.183,1.428-1.789a8.121,8.121,0,0,0,1.6-5.935c-.029-.21-3,.752-3.258.874a10.1,10.1,0,0,0-2.914,1.868,24.136,24.136,0,0,0-1.83,2.261q-1.276,1.553-2.512,3.124Q373.761,648.965,372.392,650.792Z" transform="translate(-284.317 -467.094)"/><path class="m" d="M387.5,638.28c.187.892,1.052,1.573,1.075,2.486a3.9,3.9,0,0,1-.874,1.967,13.2,13.2,0,0,0-.892,2.022,30.84,30.84,0,0,1-2.622,5.207,4.145,4.145,0,0,0-.941,2.582,3.81,3.81,0,0,0,.452,1.232l1.5,2.975a8.538,8.538,0,0,1,.763,1.879c.131.565.143,1.166.219,1.725.236,1.824,1.09,3.66.583,5.428-.044.151-.2.335-.323.23a5.668,5.668,0,0,1,.854,2.914,4.057,4.057,0,0,0,.017,1.635,1.785,1.785,0,0,1,.227.623c0,.149-.07.291-.085.44a.974.974,0,0,0,.746.906c.4.134.839.125,1.244.245a7.753,7.753,0,0,1,2,1.37,4.21,4.21,0,0,0,2.3.749.582.582,0,0,0,.338-.067.554.554,0,0,0,.189-.411,2.284,2.284,0,0,0-.825-1.984.92.92,0,0,1-.291-.321.778.778,0,0,1-.029-.358,26.58,26.58,0,0,0-.087-4.91,7.575,7.575,0,0,1-.076-1.562,6.384,6.384,0,0,0,.125-1.3,6.648,6.648,0,0,0-.4-1.244,8.722,8.722,0,0,1-.189-2.331,20.433,20.433,0,0,0-.659-3.989,3.028,3.028,0,0,0-.621-1.439c-.312-.326-.816-.635-.7-1.069a1.236,1.236,0,0,1,.291-.425,1.708,1.708,0,0,0,.358-1.3.583.583,0,0,0,.67-.315,10.49,10.49,0,0,0,5.268-5.991,1.941,1.941,0,0,1,.236-.533,2.43,2.43,0,0,1,.965-.627,7.312,7.312,0,0,0,2.532-2.582,6,6,0,0,0,.979-1.874,6.168,6.168,0,0,0,.134-1.352l.061-2.331a1.339,1.339,0,0,0-.044-.458,1.165,1.165,0,0,0-.253-.373,4.526,4.526,0,0,0-2.488-1.34c-.638-.114-1.291-.093-1.938-.146a24.377,24.377,0,0,0-3.747-.4,6.028,6.028,0,0,0-4.662,3.255C388.539,637.736,388.2,638.26,387.5,638.28Z" transform="translate(-293.448 -463.435)"/><path class="l" d="M172.417,755a3.173,3.173,0,0,0,1.34.16c.032-.37.53-.452.9-.434a1.033,1.033,0,0,1,.53.117c.093.058.163.146.253.207a1.09,1.09,0,0,0,.525.134l1.929.163a5.776,5.776,0,0,0,2.558-.169.837.837,0,0,0,.411-.274c.219-.312,0-.76-.291-.988s-.691-.332-.994-.565c-.67-.51-.76-1.457-1.116-2.226a6.429,6.429,0,0,0-.921-1.337,5.123,5.123,0,0,0-.912-.932,4.77,4.77,0,0,0-2.57-.626,1.722,1.722,0,0,0-1.7.472c-.568.705-.341,2.127-.306,2.969A21.257,21.257,0,0,0,172.417,755Z" transform="translate(-136.949 -544.464)"/><path class="p" d="M172.417,755a3.173,3.173,0,0,0,1.34.16c.032-.37.53-.452.9-.434a1.033,1.033,0,0,1,.53.117c.093.058.163.146.253.207a1.09,1.09,0,0,0,.525.134l1.929.163a5.776,5.776,0,0,0,2.558-.169.837.837,0,0,0,.411-.274c.219-.312,0-.76-.291-.988s-.691-.332-.994-.565c-.67-.51-.76-1.457-1.116-2.226a6.429,6.429,0,0,0-.921-1.337,5.123,5.123,0,0,0-.912-.932,4.77,4.77,0,0,0-2.57-.626,1.722,1.722,0,0,0-1.7.472c-.568.705-.341,2.127-.306,2.969A21.257,21.257,0,0,0,172.417,755Z" transform="translate(-136.949 -544.464)"/><path class="m" d="M165.176,639.061a1.351,1.351,0,0,0-.737,1.536,5.515,5.515,0,0,0,.778,1.675c.857,1.536,1.23,3.293,1.949,4.9.539,1.2,1.268,2.3,1.8,3.5a5.883,5.883,0,0,1,.539,3.829c-.157.621-.46,1.192-.664,1.8a10.2,10.2,0,0,0-.39,2.04,38.66,38.66,0,0,0-.14,7.04,2.138,2.138,0,0,0,.178.833c.119.233.329.478.227.72-.041.1-.128.166-.172.262-.122.268.125.548.35.737a.6.6,0,0,1-.379.291.9.9,0,0,1,.382,1c-.2.029-.213.335-.084.5s.323.262.414.443a.621.621,0,0,1-.341.781,1.6,1.6,0,0,1-.93.07,10.044,10.044,0,0,1-1.556-.341,1.4,1.4,0,0,1-.478-.219,1.419,1.419,0,0,1-.428-.944,17.06,17.06,0,0,1-.108-2.914c.084-4.709,0-9.423-.2-14.129a16.179,16.179,0,0,0-1.387-5.49,28.169,28.169,0,0,0-1.352-2.623c-1.055-1.941-1.993-4.079-1.748-6.279.026-.236.114-.522.347-.56a.505.505,0,0,1,.268.044,12.4,12.4,0,0,1,1.413.781A5.355,5.355,0,0,0,165.176,639.061Z" transform="translate(-128.928 -466.025)"/><path class="p" d="M165.176,639.061a1.351,1.351,0,0,0-.737,1.536,5.515,5.515,0,0,0,.778,1.675c.857,1.536,1.23,3.293,1.949,4.9.539,1.2,1.268,2.3,1.8,3.5a5.883,5.883,0,0,1,.539,3.829c-.157.621-.46,1.192-.664,1.8a10.2,10.2,0,0,0-.39,2.04,38.66,38.66,0,0,0-.14,7.04,2.138,2.138,0,0,0,.178.833c.119.233.329.478.227.72-.041.1-.128.166-.172.262-.122.268.125.548.35.737a.6.6,0,0,1-.379.291.9.9,0,0,1,.382,1c-.2.029-.213.335-.084.5s.323.262.414.443a.621.621,0,0,1-.341.781,1.6,1.6,0,0,1-.93.07,10.044,10.044,0,0,1-1.556-.341,1.4,1.4,0,0,1-.478-.219,1.419,1.419,0,0,1-.428-.944,17.06,17.06,0,0,1-.108-2.914c.084-4.709,0-9.423-.2-14.129a16.179,16.179,0,0,0-1.387-5.49,28.169,28.169,0,0,0-1.352-2.623c-1.055-1.941-1.993-4.079-1.748-6.279.026-.236.114-.522.347-.56a.505.505,0,0,1,.268.044,12.4,12.4,0,0,1,1.413.781A5.355,5.355,0,0,0,165.176,639.061Z" transform="translate(-128.928 -466.025)"/><path class="m" d="M137.046,622.423a1.554,1.554,0,0,0-2.142.23,11.714,11.714,0,0,0-1.107.973,5.924,5.924,0,0,0-1.323,5.86,11.707,11.707,0,0,0,1.62,2.873l1.282,1.842c1.955,2.809,3.913,5.618,5.962,8.36a.315.315,0,0,0,.221.291c.076.02.166.017.213.079a.227.227,0,0,1,.026.125,1.9,1.9,0,0,1-.114.583.271.271,0,0,0-.023.2c.064.154.347.067.434.213a.232.232,0,0,1-.093.291.337.337,0,0,0-.16.291c.015.119.21.23.2.376,0,.082-.07.143-.119.207a.527.527,0,0,0,.064.673c.134,1.34-.583,2.608-.737,3.948-.23,2.107.723,4.164.839,6.279a1.681,1.681,0,0,0,.131.694c.2.364.705.583.688,1a3.811,3.811,0,0,1-.143.5,4.054,4.054,0,0,0,.076.72c0,.242-.2.53-.428.437q.254.839.449,1.693l4.487.37a4.03,4.03,0,0,0-.041-1.212c-.093-.431-.291-.836-.39-1.268a1.5,1.5,0,0,1,.178-1.267.5.5,0,0,1-.5-.408,2,2,0,0,1,0-.7c.119-1.166-.373-2.331-.358-3.5a16.845,16.845,0,0,1,.5-2.724c.35-1.946-.015-4.059.851-5.828.525-1.072,1.25-2.261.661-3.3-.291-.513-.8-.874-1.133-1.346a5.468,5.468,0,0,1-.609-1.457,49.218,49.218,0,0,0-2.791-6.154,6.477,6.477,0,0,1-.6-1.617,8.219,8.219,0,0,1-.073-1.492,22.871,22.871,0,0,0-.166-2.681,1.954,1.954,0,0,0-1.026-1.748A48.242,48.242,0,0,0,137.046,622.423Z" transform="translate(-108.759 -455.113)"/><path class="l" d="M166.175,760.643a3.173,3.173,0,0,0,1.34.16c.035-.37.53-.452.9-.434a1.034,1.034,0,0,1,.516.119c.093.058.163.146.256.207a1.073,1.073,0,0,0,.525.134l1.926.163a5.793,5.793,0,0,0,2.561-.169.842.842,0,0,0,.408-.274c.219-.312,0-.76-.291-.988s-.691-.332-1-.565c-.667-.51-.761-1.457-1.116-2.226a6.424,6.424,0,0,0-.921-1.337,5.106,5.106,0,0,0-.909-.932,4.776,4.776,0,0,0-2.57-.626,1.718,1.718,0,0,0-1.7.472c-.583.705-.344,2.127-.309,2.969A21.653,21.653,0,0,0,166.175,760.643Z" transform="translate(-132.511 -548.468)"/><rect class="k" width="22.737" height="22.737" transform="translate(53.855 178.377)"/><circle class="n" cx="4.444" cy="4.444" r="4.444" transform="translate(49.104 150.655)"/><path class="n" d="M200.3,583.734a4.241,4.241,0,0,1-2.386.676,14.915,14.915,0,0,0-5.134,1.486,1.833,1.833,0,0,0-.583.408,1.682,1.682,0,0,0-.291.635,4.2,4.2,0,0,0-.169,1.544,4.451,4.451,0,0,0,.428,1.457,7.821,7.821,0,0,0,2.757,3.141,2,2,0,0,0,.67.32,3.9,3.9,0,0,0,1.725-.37,2.826,2.826,0,0,1,1.594.052c.484.16.994.455,1.457.259a1.521,1.521,0,0,0,.664-.755,25.613,25.613,0,0,0,1.212-2.655,10.051,10.051,0,0,1,.44-1.031c.516-.982,1.407-1.748,1.85-2.757a.606.606,0,0,0,.041-.519.72.72,0,0,0-.326-.251,7.788,7.788,0,0,1-1.774-1.393c-.291-.291-.83-1.037-1.25-1.1C200.767,582.819,200.624,583.46,200.3,583.734Z" transform="translate(-150.946 -427.318)"/><path class="l" d="M168.975,600.246a2.651,2.651,0,0,1-1.681.02,18.553,18.553,0,0,1-4.225-1.23,2.261,2.261,0,0,1-1.037-.8,2.543,2.543,0,0,1-.291-1l-.245-1.652a10.017,10.017,0,0,1,.076-1.7.5.5,0,0,0-.1-.37.4.4,0,0,0-.291-.09c-.667,0-1.069.708-1.538,1.183a2.841,2.841,0,0,1-.944.635c-.428.175-.956.291-1.128.726-.073.178-.064.382-.137.559-.291.711-1.573.475-1.9,1.166-.093.2-.087.449-.242.606s-.437.151-.67.192c-.927.151-1.378,1.224-2.171,1.728a17.934,17.934,0,0,1-2.244.749,8.59,8.59,0,0,1-1.166.583,5.51,5.51,0,0,1-1.352.067.364.364,0,0,0-.271.087.373.373,0,0,0-.044.291,8.179,8.179,0,0,0,5.056,6.332,1.783,1.783,0,0,1,.431.207c.4.291.475.953.932,1.166a.964.964,0,0,0,.973-.21,8.46,8.46,0,0,0,.7-.775,2.8,2.8,0,0,1,1.565-.822,3.448,3.448,0,0,0,1.611-.361,4.962,4.962,0,0,0,.507-.542,3.179,3.179,0,0,1,1.166-.688,11.654,11.654,0,0,1,3.642-.769,12.825,12.825,0,0,0,3.479-.341,2.04,2.04,0,0,0,.775-.437,2.332,2.332,0,0,0,.519-.9A6.874,6.874,0,0,0,168.975,600.246Z" transform="translate(-119.512 -434.8)"/><path class="l" d="M195.817,594.106c.329-.029.659,0,.988,0,.388,0,.769-.093,1.166-.1a2.873,2.873,0,0,1,2.71,2.063.524.524,0,0,1,.018.291.207.207,0,0,1-.224.151,4.923,4.923,0,0,0-.5-1,2.829,2.829,0,0,0-1.492-1.037,3.873,3.873,0,0,0-1.836-.067c-.251.047-.5.114-.746.184l-1.209.326c-.219.058-.437.119-.65.2-.163.058-.446.291-.606.291-.219,0-.041-.189.055-.318a1.556,1.556,0,0,1,.775-.562A6.523,6.523,0,0,1,195.817,594.106Z" transform="translate(-152.083 -435.208)"/><path class="n" d="M205.5,611.509c.291.921.583,1.841.935,2.739a23.179,23.179,0,0,0,2.424,4.417,31.828,31.828,0,0,0,2,2.622,8.814,8.814,0,0,1,2.2,3.453,17.488,17.488,0,0,1,.2,2.381,2.907,2.907,0,0,0,.976,2.11,3.629,3.629,0,0,0,1.608.53c.4.064.906.084,1.116-.265a.994.994,0,0,0,.111-.46l.1-1.166c.023-.251.111-.583.361-.583s.379.323.583.472a.632.632,0,0,0,.874-.291,1.477,1.477,0,0,0,.023-1.02,4.843,4.843,0,0,0-2.48-3.083,7.476,7.476,0,0,1-1.212-.632,4.079,4.079,0,0,1-.953-1.2,74.813,74.813,0,0,1-5.973-11.221,8.3,8.3,0,0,1-.615-2.212,14.275,14.275,0,0,1,.1-2.331,13.342,13.342,0,0,0-.376-4.167,3.273,3.273,0,0,0-.4-1.011,2.263,2.263,0,0,0-3.094-.446,3.188,3.188,0,0,0-1.23,2.249,6.422,6.422,0,0,0,.615,2.331Q204.442,608.121,205.5,611.509Z" transform="translate(-158.768 -439.263)"/><path class="m" d="M219.528,561.289c.035-.37-.291-.705-.673-.941a9.392,9.392,0,0,1-1.142-.7c-.338-.291-.522-.673-.86-.964a3.787,3.787,0,0,0-1.282-.638,9.732,9.732,0,0,0-3.065-.551,5.4,5.4,0,0,0-2.934.775,1.748,1.748,0,0,0-.5.463,2.04,2.04,0,0,0-.242.737,14.571,14.571,0,0,1-.766,2.331,5.408,5.408,0,0,1-1.457,2.354c-.83.693-2.1,1.093-2.652,1.929a.626.626,0,0,0-.119.539c.079.21.332.352.562.487a7.636,7.636,0,0,1,3.112,2.978,3.453,3.453,0,0,1-.274,3.715c-.312.408-.743.892-.437,1.3.463.624,2.063.268,2.43.927a1.317,1.317,0,0,1,.05.682c0,.691.667,1.308,1.477,1.626a8.239,8.239,0,0,0,2.657.437,2.3,2.3,0,0,0,.067-1.719.688.688,0,0,1-.067-.391.937.937,0,0,1,.291-.376,2.711,2.711,0,0,0,.184-3.368,19,19,0,0,1-1.833-3.246,1.649,1.649,0,0,1,.291-1.69,5.889,5.889,0,0,1,.836-.612,3.178,3.178,0,0,0,1.166-1.457c.271-.758.23-1.67,1.029-2.171s1.833-.338,2.675-.661A2.867,2.867,0,0,0,219.528,561.289Z" transform="translate(-159.515 -409.332)"/><circle class="o" cx="4.846" cy="4.846" r="4.846" transform="translate(74.609 148.682)"/><path class="o" d="M346.953,572.95a6.282,6.282,0,0,0,4.021,2.812l-.364,1.323c-.629,2.279-1.34,4.691-3.1,6.271a2.931,2.931,0,0,0-.492-2.267,8.583,8.583,0,0,0-1.643-1.719l-2.789-2.427a.76.76,0,0,1-.21-.233.711.711,0,0,1,0-.53,6.49,6.49,0,0,1,2.191-2.544,7.727,7.727,0,0,0,1.1-1.285C346.242,571.563,346.6,572.358,346.953,572.95Z" transform="translate(-263.429 -419.626)"/><path class="q" d="M355.045,584.138a2.622,2.622,0,0,1-.143,1.069.752.752,0,0,1-.874.449c.1-.23-.166-.492-.417-.463a.784.784,0,0,0-.554.469,1.748,1.748,0,0,0-.16,1.084,4.434,4.434,0,0,1,.274,1.361c-.055.382-.338.763-.186,1.122a1.8,1.8,0,0,0,.361.431,1.224,1.224,0,0,1-.131,1.678l3.788.073a2.657,2.657,0,0,0,.469,1.839,11.577,11.577,0,0,0,8.631,5.635.752.752,0,0,0-.181,1.148,1.063,1.063,0,0,0,1.212.07,9.189,9.189,0,0,0,1.04-.778,3.179,3.179,0,0,1,2.133-.583c.475.044.932.2,1.407.221,1.4.076,2.6-.932,3.94-1.343a8.59,8.59,0,0,0,2.914-.915,1.155,1.155,0,0,0,.542-1.125,1.834,1.834,0,0,0-.408-.659,11.725,11.725,0,0,1-1.093-2.04,12.176,12.176,0,0,0-2.73-3.654,24.1,24.1,0,0,0-2.7-2.054,4.58,4.58,0,0,0-.734-.44,7.526,7.526,0,0,1-1-.408,5.592,5.592,0,0,1-1.04-1.166,15.624,15.624,0,0,0-2.823-1.961,6.763,6.763,0,0,0-1.9-1.291c-.358-.108-.743-.117-1.1-.224-.816-.248-1.41-.973-2.212-1.265a8.95,8.95,0,0,0-2-.256,4.662,4.662,0,0,1-2.057-.778,2.476,2.476,0,0,0-.664-.391c-1.011-.291-1.093,1.579-1.189,2.232A18.711,18.711,0,0,0,355.045,584.138Z" transform="translate(-271.472 -424.547)"/><path class="o" d="M329.659,610.948c.169,1.839-1.221,3.622-.816,5.426.087.385.251.749.312,1.136a4.366,4.366,0,0,1-1.078,2.975l-5.245,7.675a4.663,4.663,0,0,1-.746.924c-1,.889-2.5.8-3.814,1.064a6.528,6.528,0,0,0-2.555,1.131.166.166,0,0,0-.032.227,2.191,2.191,0,0,0,1.9.892c.137.181,0,.449-.189.583-.291.2-.667.248-.723.723a.81.81,0,0,0,.093.481,1.492,1.492,0,0,0,.918.635c1.809.554,3.765-.42,5.12-1.748s2.331-2.993,3.66-4.342c.737-.746,1.573-1.384,2.331-2.107a27.549,27.549,0,0,0,3.826-4.954,5.514,5.514,0,0,0,.828-1.687c.14-.6.076-1.233.239-1.824a6.473,6.473,0,0,1,1.253-2.04,6.778,6.778,0,0,0,1.425-4.417,4.231,4.231,0,0,0-2.582-3.663,2.311,2.311,0,0,0-1.457-.087,3.472,3.472,0,0,0-1.474,1.165l-.994,1.148a2.728,2.728,0,0,0-.583.874.918.918,0,0,0,.2.976" transform="translate(-244.212 -445.03)"/><path class="q" d="M364.574,592.348a2.932,2.932,0,0,0-1.932.583,2.7,2.7,0,0,0-.484.763,7.542,7.542,0,0,0-.965,3.033,13.68,13.68,0,0,0,.35,2.535,9.666,9.666,0,0,1-.219,2.13,14.542,14.542,0,0,0,2.751-1.058,9.2,9.2,0,0,1,1.611-.836,4.781,4.781,0,0,1,2.975.583c.044-.548-.367-1.5-.323-2.04a2.233,2.233,0,0,1,.122-.679,4.042,4.042,0,0,1,.411-.656,2.684,2.684,0,0,0-.242-3.15,4.344,4.344,0,0,0-2.809-1.192,12.28,12.28,0,0,0-1.964-.067" transform="translate(-277.163 -433.986)"/><path class="m" d="M318.382,549.725l-.111-.912c.766.2,1.492-.452,1.981-1.125s.941-1.457,1.684-1.748c.906-.341,1.865.2,2.73.653a8.546,8.546,0,0,0,3.132,1.037,2.22,2.22,0,0,1,.519.084,1.8,1.8,0,0,1,.912,1.547,6.069,6.069,0,0,0,.335,1.894c.213.431.583.755.793,1.166.583,1.145.02,2.713.647,3.838l-1.553-1.422c-.143-.131-.344-.268-.5-.157s-.134.291-.187.428a.813.813,0,0,1-1.1.4,3.027,3.027,0,0,1-.988-.9,6.038,6.038,0,0,0-2.465-1.868,3.15,3.15,0,0,0-2.608.154c-.726.411-1.256,1.364-2.145,1.4-1.218.047-1.725-2.22-2.287-3.115a1.1,1.1,0,0,0,.321-1.375C317.575,549.67,318.365,549.585,318.382,549.725Z" transform="translate(-245.195 -401.069)"/><path class="e" d="M666.137,358.273a5.347,5.347,0,0,1-1.521.417,2.665,2.665,0,0,0,1.166-1.457,5.33,5.33,0,0,1-1.684.644,2.646,2.646,0,0,0-4.583,1.81,2.6,2.6,0,0,0,.067.606,7.5,7.5,0,0,1-5.461-2.774,2.66,2.66,0,0,0,.822,3.543,2.582,2.582,0,0,1-1.2-.332v.032a2.655,2.655,0,0,0,2.128,2.6,2.754,2.754,0,0,1-.7.093,2.579,2.579,0,0,1-.5-.05,2.66,2.66,0,0,0,2.477,1.842,5.315,5.315,0,0,1-3.293,1.136,5.716,5.716,0,0,1-.632-.038,7.529,7.529,0,0,0,11.6-6.352v-.341A5.386,5.386,0,0,0,666.137,358.273Z" transform="translate(-490.074 -267.282)"/><path class="e" d="M664.5,539.549l.874,2.194,5.708,6.052,1.911-1.8,1.2,1.273,1.273-1.2.073-2.474,1.591-1.5.128-4.333-5.108-5.414Zm11.51-1.212-.073,2.477-1.911,1.8-.073,2.477-1.2-1.273-1.594,1.5-5.12-5.417,6.052-5.708Z" transform="translate(-498.288 -391.508)"/><path class="e" d="M682.629,547.01l.956-.9,2.424,2.567-.956.9Zm-2.229,2.1.956-.9,2.421,2.57-.956.9Z" transform="translate(-509.586 -401.265)"/><path class="e" d="M277.85,676H268.5a.583.583,0,0,0-.583.583v9.351a.583.583,0,0,0,.583.583h4.662v-4.164h-1.256V680.82h1.279v-1.133a2,2,0,0,1,2.153-2.1c.583,0,1.206.044,1.349.064v1.416h-.964c-.659,0-.787.312-.787.772v.976h1.571l-.2,1.533h-1.37v4.161h2.914a.583.583,0,0,0,.583-.583v-9.348A.583.583,0,0,0,277.85,676Z" transform="translate(-209.254 -493.308)"/><path class="e" d="M564.4,444.874a2.194,2.194,0,0,1,2.188,2.188v4.371a2.194,2.194,0,0,1-2.188,2.188h-4.371a2.2,2.2,0,0,1-1.547-.641,2.171,2.171,0,0,1-.644-1.547v-4.371a2.194,2.194,0,0,1,2.191-2.188H564.4m0-.874h-4.371a3.074,3.074,0,0,0-3.065,3.065v4.371a3.074,3.074,0,0,0,3.065,3.065H564.4a3.074,3.074,0,0,0,3.065-3.054v-4.371A3.077,3.077,0,0,0,564.4,444Z" transform="translate(-419.845 -328.909)"/><path class="e" d="M571.458,451.327a.653.653,0,1,1,.464-.191A.659.659,0,0,1,571.458,451.327Zm-2.835.428a1.748,1.748,0,1,1-1.748,1.748,1.748,1.748,0,0,1,1.748-1.748m0-.874a2.622,2.622,0,1,0,2.622,2.622A2.622,2.622,0,0,0,568.622,450.881Z" transform="translate(-426.288 -333.167)"/><path class="e" d="M1012.8,608.239a2.129,2.129,0,0,0-2.04-2.22c-1.518-.073-3.062-.1-4.642-.1h-.492c-1.576,0-3.127.026-4.642.1a2.13,2.13,0,0,0-2.022,2.226c-.07.976-.1,1.949-.1,2.914s.026,1.949.093,2.914a2.136,2.136,0,0,0,2.022,2.232c1.591.073,3.226.1,4.887.1s3.293-.029,4.889-.1a2.148,2.148,0,0,0,2.04-2.232c.064-.976.1-1.949.093-2.928s-.026-1.946-.09-2.914Zm-8.255,5.615v-5.379l3.969,2.686Z" transform="translate(-744.078 -443.648)"/><path class="e" d="M534.984,260a6.119,6.119,0,0,0-2.459,11.746,5.454,5.454,0,0,1,.1-1.407c.12-.5.79-3.342.79-3.342a2.332,2.332,0,0,1-.2-.967c0-.909.527-1.588,1.183-1.588a.821.821,0,0,1,.828.921,13.215,13.215,0,0,1-.542,2.174.947.947,0,0,0,.967,1.18c1.166,0,1.944-1.492,1.944-3.261a2.293,2.293,0,0,0-2.55-2.346,2.914,2.914,0,0,0-3.019,2.934,1.763,1.763,0,0,0,.405,1.2.292.292,0,0,1,.087.341c-.029.114-.1.385-.125.492a.213.213,0,0,1-.309.154,2.355,2.355,0,0,1-1.256-2.331,4.042,4.042,0,0,1,4.371-3.829,3.67,3.67,0,0,1,3.881,3.511c0,2.4-1.337,4.2-3.31,4.2a1.748,1.748,0,0,1-1.495-.763s-.358,1.41-.434,1.684a5.057,5.057,0,0,1-.615,1.314,6.211,6.211,0,0,0,1.748.251,6.137,6.137,0,1,0,0-12.273Z" transform="translate(-399.391 -198.523)"/><path class="r" d="M669.789,633.984c-.236-1-.379-1.874-.379-1.874a3.882,3.882,0,0,0-.434-1.9v-.274h0v-2.011a6.654,6.654,0,0,1,.507-1.052c.361-.629,0-2.943,0-2.943s-1.34-3.261-1.017-5.329-2.751-9.187-2.751-9.187a9.077,9.077,0,0,1,.291-2.04,1.474,1.474,0,0,0,.038-.425.3.3,0,0,0,0-.052v.017a15.832,15.832,0,0,0-1.125-3.922l.146-4.872a14.348,14.348,0,0,0-.434-6.734c-.393-1.346-.644-2.421-.8-3.255-.018-.093-.035-.184-.05-.271,2.311-.353,4.079-.647,4.079-.647s-1.34-5.609-2.247-6.591-1.629-4.065-1.629-4.065-.472-3.963.291-5.12a7.7,7.7,0,0,0,.874-3.156s1.748-1.262,1.955-1.824a9.233,9.233,0,0,0,.583-2.488c0-.667-.219-1.262-.146-1.614s-.507-1.681-.216-2.314a1.692,1.692,0,0,0,.114-.609.036.036,0,0,0,0-.017h0a8.659,8.659,0,0,0-.154-1.646,4.659,4.659,0,0,0-1.719-.921l-.038-.149-.1-.393a1.332,1.332,0,0,0-.172-.1v-.728l.271-1.282c.536-2.223-2.436-2.555-2.436-2.555a1.568,1.568,0,0,0-.842-.74c-.583-.21-.1,3.351.181,3.578a11.594,11.594,0,0,1,1.165,1.836h0l.052.09a1.182,1.182,0,0,0-.137.143l.114.772.017.119a3.176,3.176,0,0,0-.475.807,1.722,1.722,0,0,1,.434,1.265,3.962,3.962,0,0,0,.181,1.541c-.032-.038-.414-.452-.8-.35s-1.457.42-1.457.42-.8.14-.726.315-.542.947-.542.947l-2.142-2.04c-.023-.061-.044-.122-.064-.184a4.9,4.9,0,0,1-.184-.874,4.76,4.76,0,0,0,.682-.219,1.478,1.478,0,0,0,.583-.379,2.313,2.313,0,0,0,.344-.924,12.838,12.838,0,0,1,.8-1.772,5.762,5.762,0,0,0,.414-3.162,2.1,2.1,0,0,0-.326-.932c-.35-.481-.985-.676-1.457-1.061s-.758-.967-1.3-1.256a2.555,2.555,0,0,0-1.626-.14,8.689,8.689,0,0,0-3.033,1.1,1.559,1.559,0,0,1-1.017.335,1.372,1.372,0,0,1-.731-.536.134.134,0,0,1,0-.032l-.026-.026a3.838,3.838,0,0,0-.332,1.6v.344a.683.683,0,0,1,0,.076h0a.515.515,0,0,1-.018.114.824.824,0,0,1-.2.291,1.291,1.291,0,0,0-.175.239.257.257,0,0,1,.029-.087,1.263,1.263,0,0,0-.224.673.669.669,0,0,0,.163.484,2.326,2.326,0,0,0,.347.291,4.088,4.088,0,0,0-.061.711,4.144,4.144,0,0,0,2.016,3.534l.073.184a5.1,5.1,0,0,1,.388,2.331.392.392,0,0,1-.026.172l-.076.087h0s-3.537.035-4.371-.72-2.1,1.841-2.1,1.841-1.268.248-1.521,0-1.748-.035-1.748-.035a3.205,3.205,0,0,0-2.209-.8,6.49,6.49,0,0,0-1.623-.9h0l-.041-.015h0a1.813,1.813,0,0,0-.8-.1,15.762,15.762,0,0,1-2.244-2.209c-.5-.769-2.914-3.634-2.934-3.648V554.6l-.029-.417a1.638,1.638,0,0,1-.216.02.507.507,0,0,0-.049-.146,7.857,7.857,0,0,0-.513-1.165s0-.524.154-.656a8.953,8.953,0,0,0-.064-2.06s-1.568-3.663-2.969-.929c0,0-2.654,1.769-.428,3.832,0,0,.874.428,1.014.769.084.221.385.842.583,1.253l.09.184-.026.02.035.344v.134c-.419.236-.7.472-.635.653a3.838,3.838,0,0,1,.254.947s3.08,3.855,3.479,5.5c0,0,8.258,4.907,10.974,5.259l-.469,2.453a19.4,19.4,0,0,0-.108,2c.035.525-.326,2.914-.326,2.914s-.472,3.5-.874,3.995-.326,2.6-.326,2.6a17.52,17.52,0,0,1-.542,2.978,7.567,7.567,0,0,0-.108,2.981s-1.378,3.156,1.92,1.017c0,0,1.617-.1,3.5-.163v.959c-.023,1.807-.035,4.3.047,6.183.146,3.331,1.166,9.907,1.166,9.907v3.31a4.62,4.62,0,0,0-.093.947,6.136,6.136,0,0,0,.892,3.316l.254,2.209a9.151,9.151,0,0,1,.606,2.331,1.144,1.144,0,0,1-.026.21,1.57,1.57,0,0,0-.029.338,18.93,18.93,0,0,0,.583,3.4s.038,2.418.4,2.558c.309.12-.414,1.4-.629,1.748a.59.59,0,0,1-.015-.07c-.026.047-.044.073-.044.073a1.7,1.7,0,0,0-.114.612.874.874,0,0,0,.4.851c.688.422,1.058.772.475.912a5.791,5.791,0,0,0-.638.134c0-.026-.023-.055-.032-.082a.391.391,0,0,0-.227.405,1.794,1.794,0,0,0,.219.819,8.743,8.743,0,0,0,.979,1.789l.291-.032a1.384,1.384,0,0,1-.163.291,1.129,1.129,0,0,1-.408.361,1.3,1.3,0,0,1-.5.172,1.382,1.382,0,0,0-1.026.5,1.071,1.071,0,0,0,.125,1.664l2.59.892s4.455.583,4.219-.42-.379-1.874-.379-1.874a3.956,3.956,0,0,0-.364-1.775,1.739,1.739,0,0,0-.157-.262l.157-.018a8.131,8.131,0,0,1,.76-2.623c.1-.1.125-.172.1-.23.047-.12-.067-.189-.213-.23l-.032.087a2.188,2.188,0,0,0-.431-.047s-.146-1.166.323-1.579a.446.446,0,0,0,.093-.344,1.981,1.981,0,0,0-.05-.472l-.018.029a16.825,16.825,0,0,0-1.04-2.719,3.361,3.361,0,0,1,.253-1.474c.288-.422-.035-5.714-.035-5.714a17.322,17.322,0,0,0-.219-3.75,4.208,4.208,0,0,1,.4-2.6v-.093s-.017-.157-.044-.4v.026c-.073-.679-.21-1.906-.312-2.471-.146-.807.035-4.662.035-4.662l.653-1.646,1.166,2.838,1.23,3.788a3.22,3.22,0,0,1,.627,1.608c0,.041,0,.082,0,.119a1.91,1.91,0,0,0,0,.254,2.26,2.26,0,0,0,.376,1.349,5.872,5.872,0,0,0,.833,2.244,2.02,2.02,0,0,1,.507,1.332,22.232,22.232,0,0,0,.906,3.051,4.474,4.474,0,0,1,.253,1.748h0v.1s.085.927.082,1.708v.271a2.718,2.718,0,0,1-.076.629v-.093a6.484,6.484,0,0,0-.186,1.617,4.138,4.138,0,0,0,.69,2.684c.979,1.122,1.594.982,1.594.982s-.472,1.4-1.052,1.684a.345.345,0,0,0-.061.038.163.163,0,0,0-.015-.082.685.685,0,0,0-.169.524,3.754,3.754,0,0,0,.717,2.078,1.148,1.148,0,0,0,.49.291l-.09.055a2.059,2.059,0,0,1-.2.1.952.952,0,0,1-.291.076,1.382,1.382,0,0,0-1.026.5,1.071,1.071,0,0,0,.125,1.664l2.59.892S670.013,635,669.789,633.984Z" transform="translate(-473.235 -402.77)"/><path class="s" d="M704.633,836.248l-2.509-.892a1.09,1.09,0,0,1-.119-1.664,1.32,1.32,0,0,1,.991-.5,1.227,1.227,0,0,0,.481-.172,1.136,1.136,0,0,0,.4-.361,1.845,1.845,0,0,0,.291-.97s2.754-.8,3.5,0a2.061,2.061,0,0,1,.335.49,4.079,4.079,0,0,1,.35,1.775s.14.874.367,1.874S704.633,836.248,704.633,836.248Z" transform="translate(-525.138 -603.379)"/><path class="s" d="M746.744,832.045l-2.506-.892a1.085,1.085,0,0,1-.122-1.661,1.317,1.317,0,0,1,.994-.5.905.905,0,0,0,.291-.076,1.468,1.468,0,0,0,.192-.1,1.586,1.586,0,0,0,.685-1.332s2.751-.807,3.5,0a1.951,1.951,0,0,1,.262.358,4,4,0,0,1,.423,1.906s.14.874.367,1.874S746.744,832.045,746.744,832.045Z" transform="translate(-555.81 -600.4)"/><path class="f" d="M713.011,831.689a2.061,2.061,0,0,1,.335.49h0l-4.126.478a1.845,1.845,0,0,0,.291-.97S712.259,830.885,713.011,831.689Z" transform="translate(-530.514 -603.378)"/><path class="f" d="M753.955,827.792v.772c-.641,1.058-3.744.828-4.645.291a1.468,1.468,0,0,0,.192-.1,1.586,1.586,0,0,0,.685-1.332s2.751-.807,3.5,0A1.955,1.955,0,0,1,753.955,827.792Z" transform="translate(-559.73 -600.358)"/><path class="m" d="M715.969,718.489a6.886,6.886,0,0,0-.492,1.052v2.771c-.7,1.166-4.347.772-4.837.14s-1.017-2.279-.458-2.558,1.017-1.684,1.017-1.684-.583.14-1.541-.982-.664-3.61-.49-4.208a12.476,12.476,0,0,0,0-2.593,5.223,5.223,0,0,0-.245-1.859,23.183,23.183,0,0,1-.874-3.051,2.071,2.071,0,0,0-.49-1.332,6.043,6.043,0,0,1-.807-2.244,2.3,2.3,0,0,1-.35-1.506,3.066,3.066,0,0,0-.6-1.824l-1.192-3.788-1.122-2.841-.629,1.646s-.178,3.858-.035,4.662.35,2.943.35,2.943a4.318,4.318,0,0,0-.385,2.6,17.729,17.729,0,0,1,.21,3.75s.315,5.294.035,5.717a3.383,3.383,0,0,0-.245,1.457s1.437,3.086.979,3.5-.315,1.579-.315,1.579.982,0,.562.42a8.4,8.4,0,0,0-.737,2.622l-4.245.536a8.97,8.97,0,0,1-.95-1.789c-.559-1.3.1-1.166.67-1.3s.207-.49-.46-.912-.291-1.367-.291-1.367,1.017-1.719.667-1.859-.388-2.558-.388-2.558a15.694,15.694,0,0,1-.524-3.645,7,7,0,0,0-.562-2.622l-.245-2.209a6.073,6.073,0,0,1-.758-4.178v-3.412s-.982-6.591-1.125-9.907c-.087-2.133-.064-5.044-.035-6.862.017-1.017.035-1.693.035-1.693l15.152-1.576a12.539,12.539,0,0,0,.277,2.249c.154.83.4,1.909.775,3.255a14.8,14.8,0,0,1,.422,6.731l-.14,4.872s1.332,3.261,1.052,4.371a9.254,9.254,0,0,0-.291,2.04s2.981,7.119,2.666,9.187.985,5.315.985,5.315S716.319,717.871,715.969,718.489Z" transform="translate(-520.883 -494.385)"/><path class="p" d="M737.22,753.945l4.6-.615S739.219,755.993,737.22,753.945Z" transform="translate(-550.924 -548.105)"/><path class="f" d="M748.709,737.87s.16,1.629-.839,2.244C747.87,740.114,749.656,739.834,748.709,737.87Z" transform="translate(-558.53 -537.15)"/><path class="f" d="M736.558,720.06s-3.852,3.173-5.245,2.914S736.558,720.06,736.558,720.06Z" transform="translate(-546.518 -524.529)"/><path class="f" d="M710.267,760.55s-2.914.667-3.013,1.842S710.267,760.55,710.267,760.55Z" transform="translate(-529.036 -553.221)"/><path class="p" d="M712.1,810.72s-4.135.772-2.961,1.3a20.038,20.038,0,0,0,3.1.944S713.574,813.034,712.1,810.72Z" transform="translate(-530.292 -588.772)"/><g class="t" transform="translate(174.111 184.581)"><path d="M705.492,816.54a.819.819,0,0,1-.379-.6l-.041.076s-.388.944.291,1.367c.076.047.149.1.216.143.122-.023.256-.041.382-.073C706.515,817.324,706.159,816.971,705.492,816.54Z" transform="translate(-702.047 -777.052)"/><path d="M724.591,815.323c.114-.1.108-.376.041-.723a1.955,1.955,0,0,0-.236,1.017A.776.776,0,0,1,724.591,815.323Z" transform="translate(-715.816 -776.102)"/><path d="M722.171,757.22a4.824,4.824,0,0,0-.291,1.288,5.1,5.1,0,0,1,.32-.874A2.585,2.585,0,0,0,722.171,757.22Z" transform="translate(-714.035 -735.442)"/><path d="M755.206,749.965a1.667,1.667,0,0,0,.038-.385c-.052.262-.087.507-.114.72C755.153,750.189,755.177,750.078,755.206,749.965Z" transform="translate(-737.596 -730.028)"/><path d="M722.306,798.108a2.206,2.206,0,0,0,.1-.778,2.567,2.567,0,0,0-.2.982A.952.952,0,0,1,722.306,798.108Z" transform="translate(-714.269 -763.865)"/><path d="M710.872,822.68a14.036,14.036,0,0,0-.481,2.153l-4.24.492a8.785,8.785,0,0,1-.95-1.789,3.131,3.131,0,0,1-.119-.309c-.253.117-.355.379-.02,1.166a8.685,8.685,0,0,0,.95,1.786l4.237-.492a8.36,8.36,0,0,1,.737-2.622C711.193,822.84,711.062,822.735,710.872,822.68Z" transform="translate(-701.967 -781.828)"/><path d="M698.261,717.035s.035,2.421.385,2.561h0c.178-.4.291-.778.137-.842-.35-.14-.385-2.558-.385-2.558a15.533,15.533,0,0,1-.524-3.648,6.923,6.923,0,0,0-.562-2.622l-.245-2.209a6.084,6.084,0,0,1-.772-4.173v-3.406s-.982-6.591-1.122-9.922c-.09-2.133-.064-5.044-.035-6.862v-.874h-.119s-.017.673-.035,1.693c-.029,1.815-.055,4.729.035,6.862.14,3.33,1.122,9.922,1.122,9.922v3.4a6.064,6.064,0,0,0,.79,4.208l.245,2.209a6.962,6.962,0,0,1,.559,2.622A15.476,15.476,0,0,0,698.261,717.035Z" transform="translate(-694.956 -682.48)"/><path d="M747.095,824.457a4.08,4.08,0,0,1-.67-1.667c-.434.391.064,1.909.53,2.509s4.138,1.017,4.84-.143v-.667C750.845,825.43,747.561,825.054,747.095,824.457Z" transform="translate(-731.309 -781.906)"/><path d="M766.229,814.832a7.007,7.007,0,0,0-.49,1.052v.492c.079-.181.192-.42.35-.7a2.124,2.124,0,0,0,.154-.874Z" transform="translate(-745.115 -776.244)"/><path d="M744.99,804.211a6.736,6.736,0,0,0,.347-.833s-.583.14-1.544-.982a5,5,0,0,1-.629-3.365c-.175.6-.458,3.086.49,4.208A2.471,2.471,0,0,0,744.99,804.211Z" transform="translate(-728.989 -765.069)"/><path d="M728.542,743.269a19.221,19.221,0,0,1,.07,2.078c.023-.137.05-.248.07-.326a12.289,12.289,0,0,0,0-2.593,5.217,5.217,0,0,0-.245-1.859,23.041,23.041,0,0,1-.874-3.051,2.071,2.071,0,0,0-.49-1.332,6.042,6.042,0,0,1-.807-2.244,2.3,2.3,0,0,1-.353-1.506,3.074,3.074,0,0,0-.583-1.824l-1.192-3.788L723,724l-.632,1.646s0,.207-.02.533l.513-1.337,1.122,2.838,1.192,3.788a3,3,0,0,1,.583,1.821,2.306,2.306,0,0,0,.364,1.492,6.025,6.025,0,0,0,.8,2.244,2.081,2.081,0,0,1,.492,1.332,21.482,21.482,0,0,0,.874,3.051A5,5,0,0,1,728.542,743.269Z" transform="translate(-714.368 -711.902)"/></g><path class="u" d="M745.309,560.784l-.262,1.282.015.583v.42l-1.457.151-.163-.291h0a12.4,12.4,0,0,0-1.136-1.836c-.271-.227-.752-3.788-.175-3.575a1.527,1.527,0,0,1,.816.737S745.827,558.558,745.309,560.784Z" transform="translate(-554.255 -409.343)"/><path class="f" d="M748.95,575.133l-1.457.151-.163-.291h0a1.288,1.288,0,0,1,1.614-.265Z" transform="translate(-558.158 -421.421)"/><path class="v" d="M749.1,576.135l-1.926.449-.041-.291-.111-.772a1.326,1.326,0,0,1,1.868-.256l.1.393Z" transform="translate(-557.952 -421.73)"/><path class="u" d="M635.551,554.276l-2.057,1.107-.187-.391c-.2-.411-.49-1.029-.583-1.25-.122-.341-.982-.772-.982-.772-2.156-2.06.411-3.829.411-3.829,1.361-2.736,2.876.927,2.876.927a9.306,9.306,0,0,1,.061,2.06c-.149.128-.149.659-.149.659a8.02,8.02,0,0,1,.5,1.166C635.519,554.156,635.551,554.276,635.551,554.276Z" transform="translate(-473.489 -402.695)"/><path class="f" d="M641.454,568.44l-2.057,1.107-.186-.39c.291-.242,1.32-1.078,1.658-1.04a2.412,2.412,0,0,0,.49,0C641.422,568.321,641.454,568.44,641.454,568.44Z" transform="translate(-479.466 -416.859)"/><path class="v" d="M641.812,569.4l-2.314,1.139-.047-.5-.032-.341s1.34-1.151,1.748-1.107a2.154,2.154,0,0,0,.606,0l.026.417Z" transform="translate(-479.624 -417.199)"/><path class="u" d="M713.925,578.91s-10.091,1.139-8.205.527a2.532,2.532,0,0,0,1.946-2.188,5.33,5.33,0,0,0-.376-2.331,10.136,10.136,0,0,0-.9-1.824s7.713-4.243,6.171-.385a6.051,6.051,0,0,0-.437,1.827,5.152,5.152,0,0,0,.2,1.847A5.508,5.508,0,0,0,713.925,578.91Z" transform="translate(-527.972 -418.966)"/><path class="f" d="M714.752,572.708a6.05,6.05,0,0,0-.437,1.827,3.568,3.568,0,0,1-2.547.583,4.55,4.55,0,0,1-2.284-.187,10.124,10.124,0,0,0-.9-1.824S716.293,568.85,714.752,572.708Z" transform="translate(-530.141 -418.967)"/><circle class="u" cx="4.173" cy="4.173" r="4.173" transform="translate(177.312 148.061)"/><path class="f" d="M713.925,590.724s-10.091,1.139-8.205.527a2.532,2.532,0,0,0,1.946-2.188,5.477,5.477,0,0,1,2.159-1.145,3.009,3.009,0,0,1,1.827-.029,2.433,2.433,0,0,1,.664.291A5.509,5.509,0,0,0,713.925,590.724Z" transform="translate(-527.972 -430.78)"/><path class="f" d="M749.367,577.593l-1.926.449-.041-.291a1.7,1.7,0,0,1,1.853-.635Z" transform="translate(-558.224 -423.188)"/><path class="f" d="M641.89,570.42l-2.314,1.139-.047-.5a17.018,17.018,0,0,1,2.331-1.031Z" transform="translate(-479.703 -418.216)"/><path class="f" d="M710.558,679.72c-3.907.615-9.47,1.419-10.353,1.151a25.631,25.631,0,0,0-5.105-.131c.017-1.017.035-1.693.035-1.693l15.152-1.576a12.559,12.559,0,0,0,.271,2.25Z" transform="translate(-520.702 -494.349)"/><path class="q" d="M673.592,602.954s-12.867,2.209-14.249,1.786-8.47.038-8.47.038c-3.191,2.136-1.856-1.017-1.856-1.017a7.6,7.6,0,0,1,.1-2.981,18.253,18.253,0,0,0,.524-2.981,6.943,6.943,0,0,1,.315-2.593c.385-.49.842-4,.842-4s.353-2.383.318-2.914.1-2,.1-2l.455-2.456c-2.622-.35-10.624-5.259-10.624-5.259-.385-1.646-3.365-5.5-3.365-5.5a4.059,4.059,0,0,0-.245-.947c-.21-.559,2.946-1.681,2.946-1.681s2.349,2.876,2.838,3.645A16.051,16.051,0,0,0,645.4,576.3a1.7,1.7,0,0,1,.772.1h.041a6.217,6.217,0,0,1,1.568.9,3.039,3.039,0,0,1,2.139.807s1.44-.21,1.684.035,1.457,0,1.457,0,1.23-2.593,2.04-1.841,4.228.72,4.228.72a5.058,5.058,0,0,1,2.261-1.265,3.01,3.01,0,0,1,1.827-.029,2.262,2.262,0,0,1,.723.35l2.075,2.04s.583-.772.527-.947.7-.315.7-.315,1.017-.315,1.4-.423.74.315.769.35a4.1,4.1,0,0,1-.175-1.541,1.749,1.749,0,0,0-.42-1.262c1.238-3,4.009-.46,4.009-.46a5.785,5.785,0,0,1,.035,2.279c-.28.632.292,1.964.21,2.314a15.779,15.779,0,0,0,.14,1.611,9.58,9.58,0,0,1-.559,2.491c-.213.559-1.894,1.821-1.894,1.821a7.908,7.908,0,0,1-.842,3.156c-.737,1.157-.292,5.12-.292,5.12s.7,3.086,1.576,4.079S673.592,602.954,673.592,602.954Z" transform="translate(-479.538 -418.513)"/><path class="f" d="M692.884,597.64s-.385-1.166-.737-1.265a8.276,8.276,0,0,1-1.017-.455l.227-.431s1.317.361,1.527.746A3.046,3.046,0,0,1,692.884,597.64Z" transform="translate(-517.252 -436.257)"/><path class="f" d="M665.248,591.855c-.07.353-3.188.667-3.188.667l1.576-1.582h0l.041.015h0A6.213,6.213,0,0,1,665.248,591.855Z" transform="translate(-496.138 -433.033)"/><circle class="w" cx="0.28" cy="0.28" r="0.28" transform="translate(160.297 153.732)"/><circle class="w" cx="0.28" cy="0.28" r="0.28" transform="translate(160.631 154.294)"/><circle class="w" cx="0.28" cy="0.28" r="0.28" transform="translate(160.961 154.81)"/><circle class="w" cx="0.28" cy="0.28" r="0.28" transform="translate(161.303 155.372)"/><circle class="w" cx="0.227" cy="0.227" r="0.227" transform="translate(192.211 155.393)"/><circle class="w" cx="0.227" cy="0.227" r="0.227" transform="translate(192.244 155.911)"/><circle class="w" cx="0.227" cy="0.227" r="0.227" transform="translate(192.271 156.427)"/><path class="f" d="M697.21,635.47c-.032-.041,7.867,9.939,14.007,4.173C711.217,639.642,701.519,640.956,697.21,635.47Z" transform="translate(-522.177 -464.587)"/><path class="f" d="M681.63,653.28s4.729.128,5.224,1.489v1.416a.906.906,0,0,1-.874,0c-.478-.256-3.336-1.71-4.345-1.011Z" transform="translate(-510.467 -477.208)"/><path class="q" d="M681.93,653.28s4.522.122,5,1.419v1.352a.874.874,0,0,1-.842,0c-.458-.248-3.205-1.632-4.155-.964Z" transform="translate(-510.676 -477.208)"/><path class="f" d="M690.49,618a15.232,15.232,0,0,0,1.833,3.144,12.28,12.28,0,0,0,2.873,2.774S690.569,618.661,690.49,618Z" transform="translate(-516.898 -452.208)"/><path class="f" d="M685.18,599.18s.79,3.406,2.821,4.563Z" transform="translate(-512.958 -438.872)"/><path class="f" d="M680.828,600.357c-.02-.064-.7,2.692,2.622,4.219C683.45,604.577,682.046,604.1,680.828,600.357Z" transform="translate(-509.732 -439.705)"/><path class="f" d="M751.9,592.515a24.393,24.393,0,0,1,2.1,1.576S752.9,592.445,751.9,592.515Z" transform="translate(-561.503 -434.147)"/><path class="s" d="M706.745,561.536a.889.889,0,0,0,.323.565.913.913,0,0,0,.393.087,8.523,8.523,0,0,0,3.788-.355,1.41,1.41,0,0,0,.583-.382,2.268,2.268,0,0,0,.309-.918,14.291,14.291,0,0,1,.772-1.772,5.953,5.953,0,0,0,.411-3.182,2.131,2.131,0,0,0-.318-.932c-.338-.481-.953-.676-1.4-1.061s-.734-.97-1.253-1.259a2.436,2.436,0,0,0-1.573-.14,8.314,8.314,0,0,0-2.937,1.1,1.453,1.453,0,0,1-.982.335,1.349,1.349,0,0,1-.723-.554,3.882,3.882,0,0,0-.312,1.815.537.537,0,0,1-.2.565,1.061,1.061,0,0,0-.2,1.308c.137.16.344.248.475.411.236.291.154.714.149,1.09a.583.583,0,0,0,.093.37.542.542,0,0,0,.516.122,1.411,1.411,0,0,1,.548-.052.924.924,0,0,1,.478.367A6.663,6.663,0,0,1,706.745,561.536Z" transform="translate(-526.433 -405.522)"/><g class="x" transform="translate(176.873 150.078)"><path d="M711.866,569.6a1.378,1.378,0,0,1-.583.379,8.373,8.373,0,0,1-3.771.356.857.857,0,0,1-.393-.087.874.874,0,0,1-.326-.562,6.5,6.5,0,0,0-1.063-2.468.909.909,0,0,0-.478-.367,1.41,1.41,0,0,0-.548.052.542.542,0,0,1-.516-.122.565.565,0,0,1-.09-.37c0-.376.084-.8-.151-1.09-.131-.163-.338-.251-.475-.411a.822.822,0,0,1-.079-.839.96.96,0,0,0-.061,1.119c.137.16.344.248.475.411.236.291.154.714.149,1.09a.583.583,0,0,0,.093.37.539.539,0,0,0,.516.122,1.41,1.41,0,0,1,.548-.052.924.924,0,0,1,.478.367,6.619,6.619,0,0,1,1.063,2.468.889.889,0,0,0,.323.565.911.911,0,0,0,.393.087,8.521,8.521,0,0,0,3.788-.355,1.429,1.429,0,0,0,.583-.382,1.112,1.112,0,0,0,.181-.338A.211.211,0,0,1,711.866,569.6Z" transform="translate(-703.176 -564.07)"/></g><path class="f" d="M712.62,592.893s5.213.691,5.682-.093" transform="translate(-533.054 -434.351)"/><path class="f" d="M747.4,585.72s2.893,0,3.532,1.09" transform="translate(-558.291 -429.334)"/></g></svg>