<svg xmlns="http://www.w3.org/2000/svg" width="307.647" height="256.076" viewBox="0 0 307.647 256.076"><defs><style>.a{fill:#f2f2f2;}.b{fill:#f2bf2b;}.c,.m{fill:none;}.c{stroke:#2f2e41;stroke-width:2px;}.d{fill:#ff6584;}.e,.k{fill:#fff;}.e{opacity:0.4;}.f{fill:#3f3d56;}.g{opacity:0.1;}.h{fill:#2f2e41;}.i{fill:#ffc107;}.j{opacity:0.15;}.k{stroke:#707070;}.l{stroke:none;}</style></defs><g transform="translate(0 0)"><path class="a" d="M414.385,129.4c-13.829-54.38-61.614-93.634-117.7-95.209-29.652-.832-60.855,9-83.573,43.416-40.61,61.519,2.5,104.03,32.548,124.231a188.047,188.047,0,0,1,38.868,34.935c20.3,24.089,59.351,54.022,105.859,7.121C424.1,209.9,423.6,165.622,414.385,129.4Z" transform="translate(-156.348 -34.143)"/><path class="b" d="M1019.109,325.412c0,14.113-11.441,36.639-25.555,36.639S968,339.525,968,325.412a25.555,25.555,0,0,1,51.11,0Z" transform="translate(-711.462 -218.047)"/><path class="c" d="M1026.782,504.809c-3.211,1.106-3.98,5.485-2.876,8.7s3.444,5.876,4.621,9.062a27.167,27.167,0,0,1,1.152,4.939c.673,4,1.347,8.064.829,12.083a34.36,34.36,0,0,1-3.76,10.845,101.455,101.455,0,0,1-12.107,18.686" transform="translate(-743.742 -359.896)"/><path class="d" d="M1047.926,498.783a4.233,4.233,0,0,0-4.926,0v-4.926h4.926Z" transform="translate(-763.37 -352.316)"/><path class="c" d="M1043.042,501.473a5.42,5.42,0,0,0,4.935-.02" transform="translate(-763.399 -357.573)"/><ellipse class="e" cx="5.388" cy="6.466" rx="5.388" ry="6.466" transform="translate(287.327 90.123)"/><path class="b" d="M66,312.412c0,14.114,11.441,36.639,25.555,36.639s25.555-22.525,25.555-36.639a25.555,25.555,0,1,0-51.11,0Z" transform="translate(-66 -209.049)"/><path class="c" d="M137.137,491.809c3.211,1.106,3.98,5.485,2.876,8.7s-3.444,5.876-4.621,9.062a27.155,27.155,0,0,0-1.152,4.939c-.672,4-1.347,8.064-.829,12.083a34.354,34.354,0,0,0,3.76,10.845,101.457,101.457,0,0,0,12.107,18.686" transform="translate(-112.529 -350.898)"/><path class="d" d="M141,485.783a4.233,4.233,0,0,1,4.926,0v-4.926H141Z" transform="translate(-117.908 -343.319)"/><path class="c" d="M145.865,488.473a5.419,5.419,0,0,1-4.935-.02" transform="translate(-117.86 -348.576)"/><ellipse class="e" cx="5.388" cy="6.466" rx="5.388" ry="6.466" transform="translate(9.545 86.121)"/><path class="f" d="M384.243,666.1c0,14.539-63.5,40.333-141.839,40.333S108,654.156,108,639.618s56.068,14.163,134.4,14.163S384.243,651.557,384.243,666.1Z" transform="translate(-95.069 -450.354)"/><path class="g" d="M384.243,666.1c0,14.539-63.5,40.333-141.839,40.333S108,654.156,108,639.618s56.068,14.163,134.4,14.163S384.243,651.557,384.243,666.1Z" transform="translate(-95.069 -450.354)"/><path class="f" d="M384.243,660.656c0,14.539-63.5,26.324-141.839,26.324S108,648.871,108,634.332s56.068,0,134.4,0S384.243,646.118,384.243,660.656Z" transform="translate(-95.069 -445.068)"/><path class="h" d="M476.5,598.615,473.41,618.36s-15.225,8.088-4.52,8.326,61.139,0,61.139,0,9.754,0-5.71-8.564l-3.093-20.7Z" transform="translate(-352.18 -423.997)"/><path class="g" d="M466.743,626.472a42.105,42.105,0,0,1,6.674-4.417l3.093-19.745,44.724.042,3.093,19.465a40.607,40.607,0,0,1,7.146,4.7c1.986-.453,4.156-2.137-7.146-8.4l-3.093-20.7-44.724,1.189-3.093,19.745S460.623,625.157,466.743,626.472Z" transform="translate(-352.188 -423.997)"/><rect class="h" width="201.498" height="140.358" rx="6" transform="translate(46.414 36.995)"/><rect class="f" width="187.937" height="105.15" transform="translate(51.095 51.447)"/><circle class="a" cx="1.189" cy="1.189" r="1.189" transform="translate(145.163 39.969)"/><path class="h" d="M448.321,547.2v12.3a7.084,7.084,0,0,1-7.085,7.085H253.908a7.084,7.084,0,0,1-7.085-7.085V547.2Z" transform="translate(-200.41 -389.237)"/><path class="h" d="M391.1,680.792v2.379H263.113v-1.9l.176-.476,3.154-8.564h122.04Z" transform="translate(-190.646 -465.257)"/><path class="h" d="M824.009,708.209c-.233,1-1.113,2.048-3.1,3.043-7.137,3.568-21.648-.952-21.648-.952s-11.181-1.9-11.181-6.9a8.927,8.927,0,0,1,.98-.583c3-1.587,12.949-5.5,30.59.166a7.357,7.357,0,0,1,3.353,2.2A3.509,3.509,0,0,1,824.009,708.209Z" transform="translate(-581.836 -495.002)"/><path class="g" d="M826.212,708.209c-8.736,3.347-16.522,3.6-24.513-1.953a17.548,17.548,0,0,0-10.439-3.438c3-1.587,12.949-5.5,30.59.166a7.356,7.356,0,0,1,3.353,2.2A3.508,3.508,0,0,1,826.212,708.209Z" transform="translate(-584.056 -495.002)"/><ellipse class="a" cx="3.093" cy="0.952" rx="3.093" ry="0.952" transform="translate(228.177 209.35)"/><circle class="a" cx="4.52" cy="4.52" r="4.52" transform="translate(141.843 163.199)"/><path class="g" d="M391.1,700.044v2.379H263.113v-1.9l.176-.476Z" transform="translate(-190.646 -484.508)"/><path class="c" d="M909.782,338.809c-3.211,1.106-3.98,5.485-2.876,8.7s3.444,5.876,4.621,9.062a27.153,27.153,0,0,1,1.152,4.939c.672,4,1.347,8.064.829,12.083a34.355,34.355,0,0,1-3.76,10.845,101.451,101.451,0,0,1-12.107,18.686" transform="translate(-658.925 -245.005)"/><path class="i" d="M902.109,159.412c0,14.113-11.441,36.639-25.555,36.639S851,173.525,851,159.412a25.555,25.555,0,1,1,51.109,0Z" transform="translate(-630.485 -103.156)"/><path class="i" d="M930.926,332.783a4.234,4.234,0,0,0-4.926,0v-4.926h4.926Z" transform="translate(-682.393 -237.426)"/><path class="c" d="M926.042,335.473a5.419,5.419,0,0,0,4.935-.02" transform="translate(-682.422 -242.683)"/><ellipse class="e" cx="5.388" cy="6.466" rx="5.388" ry="6.466" transform="translate(251.304 39.014)"/><g transform="translate(157.175 77.833)"><path class="i" d="M491.832,288.552V315.2l-7.044,14.212v0l-.223.449-18.649-1.232-7.169-.474-16.638-1.1V295.182l16.638.469,7.44.21,18.824.532Z" transform="translate(-440.26 -275.223)"/><path class="g" d="M587.772,293.658v25.074l-1.721,3.472h0l-1.765,3.559h0l-3.558,7.179.4-26.647.08-5.375,3.384-3.743h0l1.475-1.632Z" transform="translate(-536.2 -278.757)"/><path class="i" d="M489.493,261.271v9.307l-.956,1.523-1.708,2.722-1.513,2.411-3.344,5.328-.08,0-44.543-2.291v-9.18l.112-.121,5.318-5.757,1.925-2.083,3.482-3.769Z" transform="translate(-436.965 -255.018)"/><path class="g" d="M481.971,299.478v9.18l-44.624-2.295v-9.18l.112-.121Z" transform="translate(-436.965 -281.113)"/><path class="j" d="M589.8,265.57v9.307l-7.522,11.985v-9.18Z" transform="translate(-537.275 -259.317)"/><path class="h" d="M499.04,274.025l0,6.254V283.3l-.013,23.642h0l-1.765,3.559.264-24.79.039-3.794h0l.06-5.6-42.637-2.628,1.925-2.083Z" transform="translate(-449.171 -263.49)"/><path class="h" d="M506.6,280.477l-2.987,6.488-.027,3.307-.272,32.768-7.169-.474V286.533l3.825-6.056Z" transform="translate(-477.662 -269.634)"/><path class="h" d="M547.578,290.683a9.472,9.472,0,0,1-5.343.188,2.147,2.147,0,0,1-.937-.435,2.427,2.427,0,0,1-.58-1.149,9.072,9.072,0,0,1-.512-2.749,3.068,3.068,0,0,1,1.143-2.454,2.7,2.7,0,0,0,.434-.326,1.8,1.8,0,0,0,.336-.682c.522-1.558,1.535-3.2,3.159-3.453,1.5-.23,2.862.816,4.017,1.8l2.534,2.157a4,4,0,0,1,7.456-.1,14.181,14.181,0,0,1,5.638-3.868,1.735,1.735,0,0,1,1.482-.058,1.7,1.7,0,0,1,.59.791,12.179,12.179,0,0,1,1.1,4.8.841.841,0,0,1,.977.337,2.216,2.216,0,0,1,.325,1.059,15.02,15.02,0,0,1,.1,1.745,2.633,2.633,0,0,1-.458,1.746,2.9,2.9,0,0,1-2.206.685.884.884,0,0,1-.227,1.311,2.556,2.556,0,0,1-1.482.288c-1.972-.019-4.069-.075-5.709-1.17-.648-.432-1.19-1.008-1.839-1.437a8.941,8.941,0,0,0-5.431-1.016C550.481,288.772,549.161,290.153,547.578,290.683Z" transform="translate(-528.475 -279.404)"/><path class="h" d="M520.847,314.62s-16.447,2.295-18.742,12.24l3.442-.51,2.422,4.335s2.55-9.69,10.072-11.985a82.383,82.383,0,0,1,10.2-2.677s5.227,1.275,9.945,16.447l2.677-3.7,4.717,1.02s-3.442-11.857-12.75-15.172Z" transform="translate(-502.105 -303.777)"/></g><g class="k" transform="translate(64.422 77.176)"><rect class="l" width="60.305" height="6.958"/><rect class="m" x="0.5" y="0.5" width="59.305" height="5.958"/></g><g class="k" transform="translate(64.422 92.253)"><rect class="l" width="60.305" height="6.958"/><rect class="m" x="0.5" y="0.5" width="59.305" height="5.958"/></g><g class="k" transform="translate(64.422 107.329)"><rect class="l" width="60.305" height="6.958"/><rect class="m" x="0.5" y="0.5" width="59.305" height="5.958"/></g><g class="k" transform="translate(64.422 122.405)"><rect class="l" width="60.305" height="6.958"/><rect class="m" x="0.5" y="0.5" width="59.305" height="5.958"/></g></g></svg>