<svg xmlns="http://www.w3.org/2000/svg" width="289.646" height="216.879" viewBox="0 0 289.646 216.879"><defs><style>.a,.e{fill:#ffc107;}.a,.c,.d{opacity:0.1;}.b{fill:#3f3d56;}.f{fill:#f2f2f2;}.g{fill:#fbbebe;}.h{fill:#ff6f61;}.i{fill:#3a3768;}.j{fill:#e6e8ec;}</style></defs><g transform="translate(0 0)"><path class="a" d="M285.869,130.5a73.284,73.284,0,0,0-88.059-9.916C226.034,130.691,257.176,131.063,285.869,130.5Z" transform="translate(-161.911 -102.78)"/><path class="a" d="M894.483,603.115l-30.821-53.384a.981.981,0,0,0-1.7,0l-30.821,53.384a.981.981,0,0,0,.85,1.486h9.194a.987.987,0,0,1,.984.984v11.393a.984.984,0,0,0,.981.984h12a.984.984,0,0,0,.984-.984v-5.506a.981.981,0,0,1,.981-.981h11.4a.984.984,0,0,1,.984.981v5.506a.984.984,0,0,0,.984.984h11.993a.984.984,0,0,0,.984-.984v-11.4a.984.984,0,0,1,.984-.984h9.194a.984.984,0,0,0,.85-1.474Zm-42.98,5.907a.981.981,0,0,1-.7.3H846.49a.984.984,0,1,1,0-1.967h4.326a.984.984,0,0,1,.7,1.679Zm28.313,0a.981.981,0,0,1-.7.3h-4.315a.984.984,0,0,1,0-1.967h4.332a.984.984,0,0,1,.7,1.679Z" transform="translate(-628.122 -411.308)"/><path class="a" d="M263.656,604.7l-30.821-53.384a.984.984,0,0,0-1.7,0L204.51,597.428a81.319,81.319,0,0,0,11.14,11.5h4.338a.984.984,0,0,1,0,1.967h-1.83a47.627,47.627,0,0,0,7.132,4.436v-2.273a.984.984,0,0,1,.984-.984h11.4a.984.984,0,0,1,.981.984v5.5a.958.958,0,0,0,.092.413.983.983,0,0,0,.891.57h12a.963.963,0,0,0,.782-.4.945.945,0,0,0,.2-.594v-11.4a.984.984,0,0,1,.984-.984H262.8a.984.984,0,0,0,.859-1.477Zm-20.37,4.517a.981.981,0,0,1,.7-.3h4.327a.984.984,0,1,1,0,1.967h-4.33a.984.984,0,0,1-.7-1.679Zm-19.36-19.755a.983.983,0,0,1-.984-.984v-7.47a.984.984,0,0,1,.984-.984h16.121a.983.983,0,0,1,.981.984v7.47a.983.983,0,0,1-.981.984Z" transform="translate(-166.62 -412.426)"/><path class="a" d="M529.391,361.511h-38.14v-8.249a1.973,1.973,0,0,0-1.973-1.973h-11.2V342.5a1.242,1.242,0,0,0-1.242-1.242H462.409a1.242,1.242,0,0,0-1.242,1.242v8.784H448a1.973,1.973,0,0,0-1.973,1.973v8.249H409.658a.4.4,0,0,0-.4.4V471.42a.4.4,0,0,0,.4.4h24.171a.4.4,0,0,0,.4-.4V456.687a.4.4,0,0,1,.4-.4h10.21a.4.4,0,0,1,.4.4V471.42a.4.4,0,0,0,.4.4h47.768a.4.4,0,0,0,.4-.4V456.687a.4.4,0,0,1,.4-.4h10.21a.4.4,0,0,1,.4.4V471.42a.4.4,0,0,0,.4.4h24.171a.4.4,0,0,0,.4-.4V361.912A.4.4,0,0,0,529.391,361.511ZM429.9,451.169a.4.4,0,0,1-.4.4H414.576a.4.4,0,0,1-.4-.4v-5.09a.4.4,0,0,1,.4-.4h14.929a.4.4,0,0,1,.4.4Zm0-13.176a.4.4,0,0,1-.4.4H414.576a.4.4,0,0,1-.4-.4v-5.1a.4.4,0,0,1,.4-.4h14.929a.4.4,0,0,1,.4.4Zm0-13.173a.4.4,0,0,1-.4.4H414.576a.4.4,0,0,1-.4-.4v-5.1a.4.4,0,0,1,.4-.4h14.929a.4.4,0,0,1,.4.4Zm0-13.176a.4.4,0,0,1-.4.4H414.576a.4.4,0,0,1-.4-.4v-5.087a.4.4,0,0,1,.4-.4h14.929a.4.4,0,0,1,.4.4Zm0-13.173a.4.4,0,0,1-.4.4H414.576a.4.4,0,0,1-.4-.4v-5.1a.4.4,0,0,1,.4-.4h14.929a.4.4,0,0,1,.4.4Zm0-13.173a.4.4,0,0,1-.4.4H414.576a.4.4,0,0,1-.4-.4v-5.1a.4.4,0,0,1,.4-.4h14.929a.4.4,0,0,1,.4.4Zm0-13.176a.4.4,0,0,1-.4.4H414.576a.4.4,0,0,1-.4-.4v-5.087a.4.4,0,0,1,.4-.4h14.929a.4.4,0,0,1,.4.4ZM465.3,451.165a.4.4,0,0,1-.4.4H449.967a.4.4,0,0,1-.4-.4v-5.087a.4.4,0,0,1,.4-.4H464.9a.4.4,0,0,1,.4.4Zm0-13.176a.4.4,0,0,1-.4.4H449.967a.4.4,0,0,1-.4-.4V432.9a.4.4,0,0,1,.4-.4H464.9a.4.4,0,0,1,.4.4Zm0-13.173a.4.4,0,0,1-.4.4H449.967a.4.4,0,0,1-.4-.4v-5.1a.4.4,0,0,1,.4-.4H464.9a.4.4,0,0,1,.4.4Zm0-13.176a.4.4,0,0,1-.4.4H449.967a.4.4,0,0,1-.4-.4v-5.084a.4.4,0,0,1,.4-.4H464.9a.4.4,0,0,1,.4.4Zm0-13.173a.4.4,0,0,1-.4.4H449.967a.4.4,0,0,1-.4-.4v-5.1a.4.4,0,0,1,.4-.4H464.9a.4.4,0,0,1,.4.4Zm0-13.173a.4.4,0,0,1-.4.4H449.967a.4.4,0,0,1-.4-.4v-5.1a.4.4,0,0,1,.4-.4H464.9a.4.4,0,0,1,.4.4Zm0-13.176a.4.4,0,0,1-.4.4H449.967a.4.4,0,0,1-.4-.4v-5.084a.4.4,0,0,1,.4-.4H464.9a.4.4,0,0,1,.4.4Zm24.185,79.043a.4.4,0,0,1-.4.4H474.153a.4.4,0,0,1-.4-.4v-5.084a.4.4,0,0,1,.4-.4h14.929a.4.4,0,0,1,.4.4Zm0-13.176a.4.4,0,0,1-.4.4H474.153a.4.4,0,0,1-.4-.4V432.9a.4.4,0,0,1,.4-.4h14.929a.4.4,0,0,1,.4.4Zm0-13.173a.4.4,0,0,1-.4.4H474.153a.4.4,0,0,1-.4-.4v-5.093a.4.4,0,0,1,.4-.4h14.929a.4.4,0,0,1,.4.4Zm0-13.176a.4.4,0,0,1-.4.4H474.153a.4.4,0,0,1-.4-.4v-5.081a.4.4,0,0,1,.4-.4h14.929a.4.4,0,0,1,.4.4Zm0-13.173a.4.4,0,0,1-.4.4H474.153a.4.4,0,0,1-.4-.4v-5.093a.4.4,0,0,1,.4-.4h14.929a.4.4,0,0,1,.4.4Zm0-13.173a.4.4,0,0,1-.4.4H474.153a.4.4,0,0,1-.4-.4V380.2a.4.4,0,0,1,.4-.4h14.929a.4.4,0,0,1,.4.4Zm0-13.176a.4.4,0,0,1-.4.4H474.153a.4.4,0,0,1-.4-.4v-5.081a.4.4,0,0,1,.4-.4h14.929a.4.4,0,0,1,.4.4Zm35.394,79.043a.4.4,0,0,1-.4.4H509.547a.4.4,0,0,1-.4-.4v-5.081a.4.4,0,0,1,.4-.4h14.932a.4.4,0,0,1,.4.4Zm0-13.176a.4.4,0,0,1-.4.4H509.547a.4.4,0,0,1-.4-.4V432.9a.4.4,0,0,1,.4-.4h14.932a.4.4,0,0,1,.4.4Zm0-13.173a.4.4,0,0,1-.4.4H509.547a.4.4,0,0,1-.4-.4v-5.09a.4.4,0,0,1,.4-.4h14.932a.4.4,0,0,1,.4.4Zm0-13.176a.4.4,0,0,1-.4.4H509.547a.4.4,0,0,1-.4-.4v-5.078a.4.4,0,0,1,.4-.4h14.932a.4.4,0,0,1,.4.4Zm0-13.173a.4.4,0,0,1-.4.4H509.547a.4.4,0,0,1-.4-.4v-5.09a.4.4,0,0,1,.4-.4h14.932a.4.4,0,0,1,.4.4Zm0-13.173a.4.4,0,0,1-.4.407H509.547a.4.4,0,0,1-.4-.4v-5.1a.4.4,0,0,1,.4-.4h14.932a.4.4,0,0,1,.4.4Zm0-13.176a.4.4,0,0,1-.4.4H509.547a.4.4,0,0,1-.4-.4v-5.078a.4.4,0,0,1,.4-.4h14.932a.4.4,0,0,1,.4.4Z" transform="translate(-321.515 -265.132)"/><path class="a" d="M387.028,282.428a8.585,8.585,0,0,0-4.983.541,7.342,7.342,0,0,1-6.011-.015,8.386,8.386,0,0,0-7.037.14,4.383,4.383,0,0,1-2.027.505c-2.853,0-5.227-2.873-5.72-6.665a5.472,5.472,0,0,0,1.426-1.536,8.012,8.012,0,0,1,14.3-.051,5.5,5.5,0,0,0,4.74,2.6h.074C384.089,277.95,386.056,279.772,387.028,282.428Z" transform="translate(-283.059 -215.729)"/><path class="a" d="M395.7,245.485l-4.612,2.924,2.8-5.09a4.558,4.558,0,0,0-2.79-1h-.074a5.4,5.4,0,0,1-.957-.071l-1.557.992.672-1.218a5.557,5.557,0,0,1-2.734-2.08l-2.8,1.783,1.762-3.221a8.189,8.189,0,0,0-6.267-3.168,8.59,8.59,0,0,0-7.173,4.425,5.364,5.364,0,0,1-4.754,2.558h-.158c-3.212,0-5.815,3.64-5.815,8.133s2.6,8.133,5.815,8.133a4.342,4.342,0,0,0,2.027-.508,8.386,8.386,0,0,1,7.037-.137,7.343,7.343,0,0,0,5.985,0,8.383,8.383,0,0,1,6.977.134,4.354,4.354,0,0,0,2,.5c3.212,0,5.815-3.643,5.815-8.133A10.329,10.329,0,0,0,395.7,245.485Z" transform="translate(-283.277 -190.687)"/><path class="a" d="M866.365,473.051a6.035,6.035,0,0,0-3.489.377,5.131,5.131,0,0,1-4.19,0,5.872,5.872,0,0,0-4.927.1,3.055,3.055,0,0,1-1.418.354c-2,0-3.658-2.012-4-4.665a3.883,3.883,0,0,0,1-1.076,5.614,5.614,0,0,1,10.02-.036,3.845,3.845,0,0,0,3.316,1.822h.053C864.3,469.919,865.679,471.194,866.365,473.051Z" transform="translate(-635.711 -352.13)"/><path class="a" d="M872.405,447.188l-3.227,2.047,1.958-3.566a3.192,3.192,0,0,0-1.952-.7h-.051a3.827,3.827,0,0,1-.669-.051l-1.1.692.47-.85a3.918,3.918,0,0,1-1.914-1.453l-1.964,1.236L865.2,442.3a5.705,5.705,0,0,0-4.386-2.22,6,6,0,0,0-5.022,3.1,3.75,3.75,0,0,1-3.319,1.783h-.1c-2.247,0-4.071,2.547-4.071,5.69s1.824,5.693,4.071,5.693a3.055,3.055,0,0,0,1.417-.354,5.86,5.86,0,0,1,4.927-.1,5.162,5.162,0,0,0,4.19,0,5.869,5.869,0,0,1,4.882.1,3.076,3.076,0,0,0,1.4.345c2.249,0,4.071-2.547,4.071-5.694a7.235,7.235,0,0,0-.856-3.456Z" transform="translate(-636.084 -334.587)"/><path class="a" d="M315.62,409.023a6.038,6.038,0,0,1,3.489.377,5.123,5.123,0,0,0,4.187,0,5.872,5.872,0,0,1,4.927.1,3.064,3.064,0,0,0,1.417.354c2,0,3.661-2.012,4.006-4.665a3.843,3.843,0,0,1-1-1.076,5.614,5.614,0,0,0-10.026-.048,3.863,3.863,0,0,1-3.322,1.827h-.051C317.667,405.891,316.289,407.166,315.62,409.023Z" transform="translate(-249.842 -307.12)"/><path class="a" d="M293.122,383.181l3.227,2.038-1.961-3.566a3.2,3.2,0,0,1,1.952-.7h.054a3.866,3.866,0,0,0,.669-.051l1.094.692-.469-.85A3.925,3.925,0,0,0,299.6,379.3l1.958,1.242-1.239-2.249a5.734,5.734,0,0,1,4.389-2.22,6,6,0,0,1,5.022,3.1,3.747,3.747,0,0,0,3.319,1.783h.107c2.249,0,4.071,2.547,4.071,5.691s-1.822,5.693-4.071,5.693a3.072,3.072,0,0,1-1.417-.354,5.86,5.86,0,0,0-4.927-.1,5.155,5.155,0,0,1-4.187,0,5.875,5.875,0,0,0-4.885.1,3.067,3.067,0,0,1-1.4.345c-2.246,0-4.071-2.547-4.071-5.693A7.235,7.235,0,0,1,293.122,383.181Z" transform="translate(-233.04 -289.598)"/><path class="b" d="M295.68,784.715c4.023,2.556,9.821-.03,13.871,2.487,1.046.648,1.89,1.6,2.972,2.19a9.6,9.6,0,0,0,4.3.891c12.367.478,24.943-2.972,37-.184,3.373.779,6.671,2.044,10.127,2.229,5.97.324,11.69-2.588,17.666-2.749,9.063-.244,17.969,5.821,26.714,3.429,2.876-.787,5.515-2.466,8.484-2.749,3.307-.3,6.487,1.144,9.7,1.985,11.4,2.972,23.276-1.842,35.064-2.2,7.687-.235,15.3,1.441,22.982,1.828a137.218,137.218,0,0,0,16.391-.49c2.08-.146,4.258-.324,6-1.465s2.811-3.593,1.735-5.375Z" transform="translate(-251.876 -576.69)"/><path class="c" d="M295.68,784.715c4.023,2.556,9.821-.03,13.871,2.487,1.046.648,1.89,1.6,2.972,2.19a9.6,9.6,0,0,0,4.3.891c12.367.478,24.943-2.972,37-.184,3.373.779,6.671,2.044,10.127,2.229,5.97.324,11.69-2.588,17.666-2.749,9.063-.244,17.969,5.821,26.714,3.429,2.876-.787,5.515-2.466,8.484-2.749,3.307-.3,6.487,1.144,9.7,1.985,11.4,2.972,23.276-1.842,35.064-2.2,7.687-.235,15.3,1.441,22.982,1.828a137.218,137.218,0,0,0,16.391-.49c2.08-.146,4.258-.324,6-1.465s2.811-3.593,1.735-5.375Z" transform="translate(-251.876 -576.69)"/><path class="b" d="M295.68,779.715c4.023,2.555,9.821-.03,13.871,2.487,1.046.648,1.89,1.6,2.972,2.19a9.6,9.6,0,0,0,4.3.891c12.367.478,24.943-2.972,37-.184,3.373.779,6.671,2.044,10.127,2.229,5.97.324,11.69-2.588,17.666-2.749,9.063-.244,17.969,5.821,26.714,3.429,2.876-.787,5.515-2.466,8.484-2.749,3.307-.3,6.487,1.144,9.7,1.985,11.4,2.971,23.276-1.842,35.064-2.2,7.687-.235,15.3,1.441,22.982,1.828a137.269,137.269,0,0,0,16.391-.49c2.08-.146,4.258-.324,6-1.465s2.811-3.593,1.735-5.376Z" transform="translate(-251.876 -573.175)"/><g class="d" transform="translate(9.618 61.858)"><path class="b" d="M177.6,625.26a7.265,7.265,0,0,1-.96,3.679,7.53,7.53,0,0,1,0,7.358,6.762,6.762,0,0,1,.725,1.783,134.93,134.93,0,0,1-8.941-13.372h0a7.132,7.132,0,0,1,.939-3.138,7.266,7.266,0,0,1-.96-3.679,7.566,7.566,0,0,1,.434-2.559,6.361,6.361,0,0,1,.526-1.12,4,4,0,0,1,7.277,0,6.625,6.625,0,0,1,.514,1.085,7.617,7.617,0,0,1,.446,2.594,7.266,7.266,0,0,1-.96,3.679A7.266,7.266,0,0,1,177.6,625.26Z" transform="translate(-150.857 -517.187)"/><ellipse class="b" cx="4.597" cy="6.02" rx="4.597" ry="6.02" transform="translate(17.542 87.34)"/><ellipse class="b" cx="4.597" cy="6.02" rx="4.597" ry="6.02" transform="translate(17.542 79.982)"/><path class="e" d="M153.436,342.5a21.924,21.924,0,0,1-4.716,13.619,22.028,22.028,0,0,1-13.075,35.234c-.529.107-1.067.19-1.611.256a22.254,22.254,0,0,1-5.052.027q-.838-.089-1.655-.247a21.781,21.781,0,0,1-6.835-2.5,219.455,219.455,0,0,1-10.344-24.9,21.928,21.928,0,0,1,3.949-7.86,22.046,22.046,0,0,1-3.566-20.685l16.724,5.613-15.684-8.148a22.117,22.117,0,0,1,2.511-4.018,22.028,22.028,0,1,1,36.381-24.649L134.3,316.126l17.532-9.093a22.055,22.055,0,0,1-.422,17.452l-13.075-.1,12.082,1.985a22.118,22.118,0,0,1-1.715,2.52A21.93,21.93,0,0,1,153.436,342.5Z" transform="translate(-109.367 -293.239)"/><path class="c" d="M153.473,485.481A22.033,22.033,0,0,1,135.7,507.1c-.533.108-1.07.191-1.614.256a22.252,22.252,0,0,1-5.052.027q-.838-.089-1.655-.247a21.781,21.781,0,0,1-6.835-2.5,219.456,219.456,0,0,1-10.359-24.91,21.927,21.927,0,0,1,3.949-7.86,21.939,21.939,0,0,1-4.716-13.63c0-2.472,42.291,9.871,39.337,13.619A21.924,21.924,0,0,1,153.473,485.481Z" transform="translate(-109.404 -408.976)"/></g><g class="d" transform="translate(259.729 85.503)"><path class="b" d="M1084.52,637.65c-.862,2.752-1.783,5.482-2.728,8.151a7.612,7.612,0,0,1-.392-2.44C1081.4,640.708,1082.707,638.455,1084.52,637.65Z" transform="translate(-1063.844 -558.952)"/><path class="e" d="M1052.238,404.094c0,5.215-1.052,13.455-2.971,22.881a251.354,251.354,0,0,1-6.285,24.533c-.862,2.752-1.783,5.482-2.728,8.151-1.085,3.031-2.229,5.979-3.426,8.8a22.111,22.111,0,0,1-9.779-34.4,22.132,22.132,0,0,1-3.566-20.729l16.724,5.625-15.684-8.166a22.188,22.188,0,0,1,2.511-4.026,22.108,22.108,0,0,1,8.653-33.95,37.9,37.9,0,0,1,14.486,19l-2.9,2.157,3.108-1.614a37.712,37.712,0,0,1,1.809,9.9h-.873l.891.146C1052.238,402.956,1052.238,403.521,1052.238,404.094Z" transform="translate(-1022.321 -372.81)"/><path class="c" d="M1049.351,538.8a251.314,251.314,0,0,1-6.285,24.533c-.862,2.752-1.783,5.483-2.728,8.151-1.085,3.031-2.229,5.979-3.426,8.8a22.111,22.111,0,0,1-9.779-34.4,22.019,22.019,0,0,1-4.713-13.645C1022.42,530.751,1037.789,534.643,1049.351,538.8Z" transform="translate(-1022.391 -484.635)"/></g><path class="a" d="M366.61,243.644v-.14a40.193,40.193,0,0,0-1.686-9.9c-.055-.181-.111-.365-.169-.544a37.713,37.713,0,0,0-13.5-19c-14.587-10.665-34.284-8.052-46.011,6.1a56.349,56.349,0,0,0-2.8-10.54,147.073,147.073,0,0,1-27.865,1.114,107.569,107.569,0,0,0,17.667,6.885l-.216.862a108.713,108.713,0,0,1-19.749-7.934l-1.913-1,2.121.149a147.106,147.106,0,0,0,29.629-.912,54.317,54.317,0,0,0-8.728-14.881c-15.939-1.724-31.753-5.313-46.521-12.43l.341-.811c14.374,6.933,29.779,10.5,45.33,12.249-10.672-12.277-26.1-18.455-41.66-16.68s-29.432,11.3-37.461,25.7a76.036,76.036,0,0,0-16.958-41.275,151.68,151.68,0,0,1-26.243,8.531,148.2,148.2,0,0,1-41.021,3.5,107.573,107.573,0,0,0,17.667,6.885l-.216.862A108.718,108.718,0,0,1,126.9,172.52l-1.913-1,2.121.149a147.958,147.958,0,0,0,68.773-11.693q-1.232-1.447-2.536-2.829c-27.253.594-56.935.3-83.806-10.2C89.3,160.36,76.978,184.079,77,209.611c0,13.806,3.536,32.791,9.692,51.839a229.509,229.509,0,0,0,9.667,24.961c1.88,4.1,3.877,8.086,5.973,11.9h0a136.19,136.19,0,0,0,8.332,13.372q.814,1.15,1.648,2.258a79.337,79.337,0,0,0,10.379,11.55h0q1.155,1.034,2.323,1.97a43.9,43.9,0,0,0,6.646,4.457,29.04,29.04,0,0,0,12.544,3.649c.343.015.689.024,1.033.024v.151H331.318v-.151h.138A8.842,8.842,0,0,0,334.6,335c6.579-2.505,12.638-12.564,17.675-25.276,1.108-2.82,2.182-5.768,3.193-8.8.892-2.674,1.739-5.4,2.542-8.151q3.5-12.1,5.857-24.533c1.775-9.426,2.769-17.666,2.769-22.881C366.646,244.776,366.646,244.212,366.61,243.644Z" transform="translate(-77 -128.562)"/><path class="e" d="M364.279,728.945l5.688-3.346a13.709,13.709,0,0,0-2.909-3.48l-10.73,3.337,8.409-4.942A13.669,13.669,0,0,0,344.5,732.5c0,7.548,6.118,7.809,13.669,7.809s13.669-.261,13.669-7.809a13.607,13.607,0,0,0-1.174-5.548Z" transform="translate(-270.949 -530.508)"/><path class="c" d="M365.7,757a10.616,10.616,0,0,0-2.015-1.581,9.38,9.38,0,0,0-3.319-1.619,24.869,24.869,0,0,0-3.269-.1,7.625,7.625,0,0,1-5-2.288,15.6,15.6,0,0,0-2.321-2.4,5.1,5.1,0,0,0-3.48-.639,8.634,8.634,0,0,0-1.028.211,13.626,13.626,0,0,0-.808,4.639c0,7.548,6.118,7.809,13.669,7.809,3.664,0,6.989-.062,9.444-.987l-.41-.767A10.814,10.814,0,0,0,365.7,757Z" transform="translate(-270.84 -551.226)"/><circle class="b" cx="10.623" cy="10.623" r="10.623" transform="translate(140.904 44.579)"/><path class="b" d="M563.09,532.808c1.1,7.693-.241,15.538-2.324,23.024a17.092,17.092,0,0,1-1.536,4.05,43.132,43.132,0,0,1-2.6,3.5,30.419,30.419,0,0,0-3.807,8.213,231.659,231.659,0,0,0-6.781,24.165,1.654,1.654,0,0,0,0,1.031c.258.594,1.043.672,1.688.669l8.338-.045c.3-.571-.253-1.189-.594-1.735-1.189-1.848-.047-4.249,1-6.184a66.474,66.474,0,0,0,5.878-14.858,40.287,40.287,0,0,1,1.961-6.457c1.12-2.49,2.876-4.633,4.3-6.962a58.313,58.313,0,0,0,4.068-8.6c1.676-4.095,3.367-8.24,4.026-12.614a50.389,50.389,0,0,0-.089-12.424.784.784,0,0,0-.909-.891l-11.188-.576c-2.306-.119-2.853-.624-2.5,1.64C562.27,529.45,562.846,531.1,563.09,532.808Z" transform="translate(-417.159 -394.967)"/><path class="c" d="M563.09,532.808c1.1,7.693-.241,15.538-2.324,23.024a17.092,17.092,0,0,1-1.536,4.05,43.132,43.132,0,0,1-2.6,3.5,30.419,30.419,0,0,0-3.807,8.213,231.659,231.659,0,0,0-6.781,24.165,1.654,1.654,0,0,0,0,1.031c.258.594,1.043.672,1.688.669l8.338-.045c.3-.571-.253-1.189-.594-1.735-1.189-1.848-.047-4.249,1-6.184a66.474,66.474,0,0,0,5.878-14.858,40.287,40.287,0,0,1,1.961-6.457c1.12-2.49,2.876-4.633,4.3-6.962a58.313,58.313,0,0,0,4.068-8.6c1.676-4.095,3.367-8.24,4.026-12.614a50.389,50.389,0,0,0-.089-12.424.784.784,0,0,0-.909-.891l-11.188-.576c-2.306-.119-2.853-.624-2.5,1.64C562.27,529.45,562.846,531.1,563.09,532.808Z" transform="translate(-417.159 -394.967)"/><path class="b" d="M601.435,484.028c-2.273,3.269-4.656,7.031-3.9,10.944.573,2.972,2.838,5.274,4.974,7.429,8.54,8.576,16.938,18.1,19.844,29.855.749,3.037,1.111,6.154,1.756,9.212a101.734,101.734,0,0,0,5.349,16.15l5.575,14.07a8.427,8.427,0,0,0,8.053-5.349,3.526,3.526,0,0,1-2.113-1.358c-2.377-3.289-2.865-7.521-3.474-11.533-.675-4.434-1.575-8.831-2.478-13.226l-3.994-19.446c-.461-2.243-.921-4.49-1.521-6.7-2.324-8.564-6.728-16.641-7.408-25.5-.1-1.3-.163-2.731-1.046-3.7-.927-1.019-2.449-1.189-3.824-1.269C611.66,483.258,606.858,482.715,601.435,484.028Z" transform="translate(-455.106 -364.89)"/><path class="f" d="M544.431,756.448a8.864,8.864,0,0,0-1.848-.238,3.839,3.839,0,0,0-3.019,1.649,7.5,7.5,0,0,0-.811,1.783l-.805,2.312a2.571,2.571,0,0,0-.116,2.08,2.2,2.2,0,0,0,1.082.835c1.949.868,4.16.915,6.27,1.123,2.062.2,4.107.565,6.142.945.7.134,1.4.267,2.11.339a25.142,25.142,0,0,0,4.772-.143l1.637-.157a5.9,5.9,0,0,0,1.611-.3,2.03,2.03,0,0,0,1.189-1.067,1.927,1.927,0,0,0-1.524-2.4c-.431-.083-.891-.045-1.313-.1a6.209,6.209,0,0,1-1.438-.431,28.683,28.683,0,0,1-6.053-2.951c-.511-.36-1.046-.862-.99-1.486a3.032,3.032,0,0,1,.264-.77,2.811,2.811,0,0,0,.024-1.988c-.1-.273-.3-.562-.573-.594-.784-.1-.689,1.049-.805,1.486-.158.594-.443.648-1,.594C547.628,756.831,546.023,756.751,544.431,756.448Z" transform="translate(-410.911 -555.851)"/><path class="f" d="M718.265,761.953a5.245,5.245,0,0,0,1.135,3.194,2.484,2.484,0,0,0,.808.651,3.246,3.246,0,0,0,1.486.235,11.9,11.9,0,0,0,4.128-.835,11.8,11.8,0,0,1,1.426-.538,16.007,16.007,0,0,1,1.854-.267c2.457-.354,4.615-1.8,6.989-2.538a14.7,14.7,0,0,0,2.08-.683,9.533,9.533,0,0,0,2.445-1.911,4.388,4.388,0,0,0,1.6-4.047.769.769,0,0,0-.071-.419.624.624,0,0,0-.267-.211,3.88,3.88,0,0,0-2.377-.039,42.248,42.248,0,0,1-8.778.324,1.275,1.275,0,0,1-1.349-.77l-1.114-1.783c-.318-.511-.823-1.1-1.4-.921a1.14,1.14,0,0,0-.63,1.189,6.352,6.352,0,0,1,.074,1.438,1.964,1.964,0,0,1-.951,1.236,6.071,6.071,0,0,1-1.486.57,11.41,11.41,0,0,0-4.817,2.2C718.123,758.88,718.209,760.8,718.265,761.953Z" transform="translate(-541.757 -553.371)"/><path class="g" d="M689.3,359.7a6.887,6.887,0,0,0,1.622-1.765,7.2,7.2,0,0,0,.692-2.44l.466-2.948a8.881,8.881,0,0,1,1.646-4.585c1.085-1.239,3.245-1.682,4.347-.458a3.813,3.813,0,0,1,.79,1.973,14.365,14.365,0,0,1-3.512,11.886c-1.334,1.462-2.971,2.624-4.383,4.006-1.23,1.189-2.3,2.553-3.432,3.845a47.37,47.37,0,0,1-9.351,8.172,41.97,41.97,0,0,0,0-6.778c-.241-1.587-.891-2.443.645-3.48A117.875,117.875,0,0,0,689.3,359.7Z" transform="translate(-512.355 -269.011)"/><path class="g" d="M610.64,306.088a5.436,5.436,0,0,1-2.08,4.11q5.554,1.943,10.956,4.285a3.8,3.8,0,0,1-.939-2.657,13.411,13.411,0,0,1,2.05-7.161,1.738,1.738,0,0,0,.336-.945c-.042-.7-.874-1.025-1.557-1.189A38.287,38.287,0,0,0,612.3,301.5c-1.025-.033-2.241-.357-2.009.948A14.346,14.346,0,0,1,610.64,306.088Z" transform="translate(-461.814 -237.146)"/><circle class="g" cx="8.686" cy="8.686" r="8.686" transform="translate(147.072 52.418)"/><path class="h" d="M618.436,336.937a10.5,10.5,0,0,0-1.1-1.848,38.446,38.446,0,0,0-5.212-6.392,32.434,32.434,0,0,0-4.948-3.634,11.229,11.229,0,0,0-3.1-1.486,12.12,12.12,0,0,0-1.988-.27l-2.255-.184a1.844,1.844,0,0,0-.594.018,1.281,1.281,0,0,0-.761,1.53,3.766,3.766,0,0,0,1,1.581c.1,4.6-1.946,9.143-2.223,13.74-.484,8.038,4.422,15.514,4.814,23.558a2.541,2.541,0,0,1-.113,1.079c-.065.166-.163.318-.238.481a4.7,4.7,0,0,0-.265,1.634,8.3,8.3,0,0,1-2.446,5.236,3.635,3.635,0,0,0,1.379,1.052,24.859,24.859,0,0,0,3.088.737,23.967,23.967,0,0,0,8.05,1.376,7.1,7.1,0,0,0,.621-2.339c.386-.241.832.273.891.725s-.027.978.3,1.3a1.223,1.223,0,0,0,1.129.226,49.9,49.9,0,0,0,4.9-1.15,9.145,9.145,0,0,1,4.971-.018,1.33,1.33,0,0,0-.077-1.456,6.5,6.5,0,0,1-.781-1.334,3,3,0,0,1-.1-.877c0-2.541.523-5.108.027-7.6-.146-.731-.377-1.444-.526-2.178a18.791,18.791,0,0,1-.214-4.344c.039-1.453-.137-3.025-.166-4.5a14.359,14.359,0,0,0-.119-1.822c-.1-.633-.3-1.251-.351-1.89-.16-1.622.493-3.233.4-4.861C622.272,340.559,619.4,339.216,618.436,336.937Z" transform="translate(-454.186 -252.373)"/><path class="g" d="M574.9,365.551c-2.1,5.581-3.132,11.5-4.16,17.378l-2.377,13.806a66.8,66.8,0,0,0-1.325,11.785,12.617,12.617,0,0,1-.22,3.316,17.907,17.907,0,0,1-2.042,3.863,12.713,12.713,0,0,0-1.367,8.6c.244,1.233.909,2.633,2.16,2.775a2.992,2.992,0,0,0,2.517-1.548,19.94,19.94,0,0,0,2.674-6.57,148.62,148.62,0,0,0,4.122-22.908,22.3,22.3,0,0,1,.413-2.912,20.674,20.674,0,0,1,1-2.9q1.364-3.382,2.731-6.763a108.026,108.026,0,0,1,7.1-15.262c-2.853-.82-5.821-1.783-8.674-2.594A7.833,7.833,0,0,0,574.9,365.551Z" transform="translate(-429.335 -282.152)"/><path class="h" d="M602.307,364.4a32.645,32.645,0,0,0-6.1-.348,1.316,1.316,0,0,1-.82-.214c-.413-.354-.238-1.016-.03-1.518l.986-2.377a3.459,3.459,0,0,1,.79-1.313,3.353,3.353,0,0,1,1.875-.636,16.988,16.988,0,0,1,6.5.253,7.769,7.769,0,0,1,5.016,3.887,2.645,2.645,0,0,1,.053,2.6c-.773,1.108-2.5,2.348-3.8,1.741C605.228,365.737,604.043,364.765,602.307,364.4Z" transform="translate(-452.22 -276.757)"/><path class="b" d="M590.368,230.932a8.772,8.772,0,0,0-4.844,1.4,10.623,10.623,0,0,0-10.43-2.443,6.071,6.071,0,1,0-7.013,7.025,10.623,10.623,0,0,0,20.391,5.97,9.506,9.506,0,0,0,1.9.193c4.19,0,7.589-2.719,7.589-6.071S594.552,230.932,590.368,230.932Z" transform="translate(-429.699 -183.319)"/><path class="c" d="M652.3,270.3a9.243,9.243,0,0,1-1.9-.193A10.568,10.568,0,0,1,649,273.168a9.539,9.539,0,0,0,1.783.172c3.916,0,7.132-2.377,7.545-5.42A8.372,8.372,0,0,1,652.3,270.3Z" transform="translate(-490.967 -213.585)"/><path class="c" d="M579.746,252.239a10.638,10.638,0,0,1-10.157-13.752,6.071,6.071,0,0,1-5.019-5.979,5.969,5.969,0,0,1,.1-1.088,6.071,6.071,0,0,0,3.405,10.1,10.623,10.623,0,1,0,20.293,6.294,10.6,10.6,0,0,1-8.621,4.422Z" transform="translate(-429.333 -187.931)"/><rect class="i" width="0.199" height="1.646" rx="0.1" transform="matrix(0.814, 0.581, -0.581, 0.814, 186.179, 82.021)"/><rect class="i" width="0.113" height="0.541" rx="0.056" transform="matrix(0.814, 0.581, -0.581, 0.814, 181.831, 77.115)"/><rect class="i" width="0.125" height="0.942" rx="0.062" transform="matrix(0.814, 0.581, -0.581, 0.814, 181.293, 77.924)"/><rect class="i" width="0.119" height="0.951" rx="0.059" transform="matrix(0.814, 0.581, -0.581, 0.814, 180.61, 78.962)"/><rect class="i" width="6.68" height="13.577" rx="2.52" transform="matrix(0.814, 0.581, -0.581, 0.814, 183.063, 76.25)"/><rect class="c" width="6.68" height="13.577" rx="2.52" transform="matrix(0.814, 0.581, -0.581, 0.814, 183.063, 76.25)"/><rect class="i" width="6.68" height="13.577" rx="2.52" transform="matrix(0.814, 0.581, -0.581, 0.814, 182.808, 75.696)"/><path class="e" d="M724.86,345.178l-.621-.446-.053.074a.434.434,0,0,1-.594.1l-1.985-1.417a.437.437,0,0,1-.1-.609l.054-.074-.594-.416a.529.529,0,0,0-.74.122l-6.858,9.613a.532.532,0,0,0,.122.74l3.9,2.784a.529.529,0,0,0,.74-.125l6.858-9.61a.529.529,0,0,0-.131-.74Z" transform="translate(-537.589 -265.859)"/><rect class="j" width="0.933" height="0.19" rx="0.095" transform="matrix(0.814, 0.581, -0.581, 0.814, 184.638, 77.594)"/><circle class="j" cx="0.107" cy="0.107" r="0.107" transform="translate(185.392 78.259)"/><path class="e" d="M699.909,99A19.909,19.909,0,0,0,680,118.909c0,10.995,20.86,47.408,20.86,47.408s18.958-36.4,18.958-47.408A19.909,19.909,0,0,0,699.909,99Zm0,33.186a4.321,4.321,0,1,1,0,.009Z" transform="translate(-514.818 -94.861)"/><path class="c" d="M699.909,99A19.909,19.909,0,0,0,680,118.909c0,10.995,20.86,47.408,20.86,47.408s18.958-36.4,18.958-47.408A19.909,19.909,0,0,0,699.909,99Zm0,33.186a4.321,4.321,0,1,1,0,.009Z" transform="translate(-514.818 -94.861)"/><path class="e" d="M699.909,85.07A19.909,19.909,0,0,0,680,104.979c0,10.995,20.86,51.556,20.86,51.556s18.958-40.556,18.958-51.553A19.91,19.91,0,0,0,699.906,85.07Zm0,33.186a10.43,10.43,0,1,1,10.43-10.43A10.43,10.43,0,0,1,699.909,118.256Z" transform="translate(-514.818 -85.07)"/><path class="e" d="M690.364,85.07A10.364,10.364,0,0,0,680,95.434c0,5.724,10.859,26.839,10.859,26.839s9.869-21.112,9.869-26.838A10.365,10.365,0,0,0,690.363,85.07Zm0,17.276a5.43,5.43,0,1,1,5.43-5.43A5.43,5.43,0,0,1,690.364,102.346Z" transform="translate(-468.688 -25.446)"/></g></svg>