<svg xmlns="http://www.w3.org/2000/svg" width="143.669" height="116.439" viewBox="0 0 143.669 116.439">
    <defs>
        <style>
            .cls-1{opacity:.709}
        </style>
    </defs>
    <g id="icon" class="cls-1">
        <path id="Rectangle_86" d="M0 0h29.456v10.691H0z" data-name="Rectangle 86" transform="translate(14.417)"/>
        <path id="Path_227" d="M44.993 32.962A18.536 18.536 0 1 1 26.461 14.43a18.534 18.534 0 0 1 18.532 18.532z" data-name="Path 227" transform="translate(25.17 32.238)"/>
        <path id="Path_228" d="M133.429 6.6H10.248A10.248 10.248 0 0 0 0 16.849v81.96a10.254 10.254 0 0 0 10.248 10.256h123.181a10.236 10.236 0 0 0 10.239-10.256v-81.96A10.225 10.225 0 0 0 133.429 6.6zm-17.843 8.313h12.474a6.722 6.722 0 1 1 0 13.444h-12.473a6.722 6.722 0 1 1 0-13.444zM52.041 96.7a38.864 38.864 0 1 1 38.864-38.865A38.859 38.859 0 0 1 52.041 96.7zm83.929-7.115h-14.476v14.768h-12.608V89.585H94.214V76.969h14.672V62.606h12.608v14.363h14.475z" data-name="Path 228" transform="translate(0 7.373)"/>
    </g>
</svg>
